<svg xmlns="http://www.w3.org/2000/svg" xmlns:xlink="http://www.w3.org/1999/xlink" width="156" height="78" viewBox="0 0 156 78">
  <defs>
    <clipPath id="clip-path">
      <rect id="Rectangle_20446" data-name="Rectangle 20446" width="156" height="78" transform="translate(778 755)" fill="none" stroke="#f0f0f0" stroke-width="1"/>
    </clipPath>
  </defs>
  <g id="Mask_Group_4819" data-name="Mask Group 4819" transform="translate(-778 -755)" clip-path="url(#clip-path)">
    <g id="client-2" transform="translate(808.389 773.084)">
      <path id="Path_41201" data-name="Path 41201" d="M1969.932-1245.016c-.053.04-.122.07-.155.122-.342.548-.687,1.094-1.016,1.651q-1.277,2.154-2.532,4.318-1.177,2.027-2.332,4.068c-.494.869-.987,1.737-1.466,2.613a4.007,4.007,0,0,0-.3.748c-.1.313.027.464.363.472a4.053,4.053,0,0,0,1.561-.359,1.461,1.461,0,0,1,.5-.142c-.1.426-.215.806-.283,1.195a1.048,1.048,0,0,1-.515.739,24.736,24.736,0,0,1-2.958,1.777,8.589,8.589,0,0,1-1.772.681,2.577,2.577,0,0,1-1.217.044,1.125,1.125,0,0,1-.8-1.08,4.909,4.909,0,0,1,.171-1.639c.155-.541.325-1.077.488-1.617.018-.062.029-.126.061-.265-.244.209-.437.356-.611.525a26.544,26.544,0,0,1-3.111,2.592,8.957,8.957,0,0,1-2.661,1.42,2.129,2.129,0,0,1-1.142.1,1.064,1.064,0,0,1-.786-1.168,9.353,9.353,0,0,1,.671-2.438,40.9,40.9,0,0,1,2.129-4.525c.8-1.466,1.607-2.924,2.413-4.383.284-.5.576-.994.859-1.5a3.656,3.656,0,0,0,.157-.348.2.2,0,0,0-.1-.12.2.2,0,0,0-.159-.005c-.172.041-.339.093-.511.141-.109.027-.221.041-.335.061a.652.652,0,0,1-.06-.165v-1.6c.132-.085.284-.19.443-.284,1.316-.776,2.63-1.561,3.95-2.322a3.112,3.112,0,0,1,1.081-.412c.9-.142,1.452.157,1.476,1.233a4.371,4.371,0,0,1-.273,1.375,11.554,11.554,0,0,1-1.36,2.66c-1.049,1.686-2.089,3.378-3.141,5.063-.342.548-.731,1.068-1.062,1.621a12.379,12.379,0,0,0-.587,1.2,1.819,1.819,0,0,0-.075.378.968.968,0,0,0,.271-.059c.456-.284.924-.568,1.355-.883a11.908,11.908,0,0,0,2.013-1.916c.64-.765,1.307-1.51,1.92-2.3,1.185-1.52,2.319-3.077,3.383-4.684q.836-1.263,1.677-2.524c.058-.088.121-.172.19-.271.274-.044.551-.1.829-.132.825-.108,1.652-.2,2.477-.32a.825.825,0,0,1,.777.216c.019.021.065.018.1.027Z" transform="translate(-1874.705 1255.242)" fill="#cd9200"/>
      <path id="Path_41202" data-name="Path 41202" d="M927.575-1354.374c.326-.2.659-.4.981-.61a9.571,9.571,0,0,0,2.444-2.16,2.48,2.48,0,0,0,.6-1.793,1.41,1.41,0,0,0-.106-.477,2.731,2.731,0,0,0-.751-.963,1.418,1.418,0,0,0-1.3-.238,4.685,4.685,0,0,0-1.666.893,14.516,14.516,0,0,0-2.816,2.993,14.062,14.062,0,0,0-1.742,2.929c-.186.444-.342.9-.519,1.348a21.667,21.667,0,0,1-1.258,2.594,31.878,31.878,0,0,1-2.839,4.2c-.46.579-.952,1.135-1.429,1.7l-.511.6c.142.182.258.352.389.514a29.82,29.82,0,0,0,3.033,3.242,10.99,10.99,0,0,0,2.814,1.98,3.712,3.712,0,0,0,1.554.406,4.1,4.1,0,0,0,2.437-.8,5.263,5.263,0,0,0,1.885-2.657c.03-.087.075-.169.122-.269h3.172a1.631,1.631,0,0,1-.118.252,19.15,19.15,0,0,1-2.64,3.066,15.493,15.493,0,0,1-4.058,2.771,12.394,12.394,0,0,1-3.2.948,5.584,5.584,0,0,1-3.026-.426,12.574,12.574,0,0,1-3.659-2.351c-.745-.664-1.441-1.382-2.155-2.082-.142-.142-.284-.311-.426-.474a2.515,2.515,0,0,0-.244.111c-1.094.664-2.176,1.351-3.287,1.987a7.986,7.986,0,0,1-2.159.93,6.377,6.377,0,0,1-3,.044,2.4,2.4,0,0,1-.425-.156,1.006,1.006,0,0,1-.611-.953,3.406,3.406,0,0,1,1.348-2.852,9.143,9.143,0,0,1,3.45-1.7c.688-.193,1.383-.373,2.084-.517.6-.122,1.2-.185,1.845-.284.142-.322.284-.667.426-1.009.551-1.246,1.09-2.5,1.664-3.733.693-1.492,1.463-2.945,2.294-4.364a33.265,33.265,0,0,1,3.039-4.448,24.838,24.838,0,0,1,2.6-2.68,21.723,21.723,0,0,1,3.105-2.311,14.735,14.735,0,0,1,3.612-1.641,7.822,7.822,0,0,1,2.607-.329,3.682,3.682,0,0,1,3.179,2.014,4.2,4.2,0,0,1,.173,3.8,6.854,6.854,0,0,1-2.839,3.264,4.345,4.345,0,0,1-1.561.626,2.63,2.63,0,0,1-2.445-.765.547.547,0,0,1-.061-.085.522.522,0,0,1-.011-.1Z" transform="translate(-903.069 1363.495)" fill="#cd9200"/>
      <path id="Path_41203" data-name="Path 41203" d="M1565.362-1359.311c.651-.45,1.3-.873,1.923-1.334a6.008,6.008,0,0,0,1.845-2.014,2,2,0,0,0,.238-1.519,2,2,0,0,0-.909-1.24,1.293,1.293,0,0,0-1.077-.208,4.191,4.191,0,0,0-1.665.807,13.654,13.654,0,0,0-2.329,2.3,19.223,19.223,0,0,0-1.72,2.448,10.125,10.125,0,0,0-.84,1.784,23.336,23.336,0,0,1-2.109,4.335,35.471,35.471,0,0,1-2.8,3.93c-.386.473-.808.918-1.212,1.377-.084.1-.162.195-.26.312.3.372.568.744.873,1.08.7.765,1.384,1.539,2.12,2.271a13.559,13.559,0,0,0,2.718,2.116,4.85,4.85,0,0,0,2.085.7,3.281,3.281,0,0,0,1-.142,4.265,4.265,0,0,0,2.346-1.53,5.766,5.766,0,0,0,.942-1.682c.046-.13.11-.256.152-.353h3.068c.018,0,.036.025.078.058a1.881,1.881,0,0,1-.149.261c-.457.582-.911,1.165-1.381,1.737a14.407,14.407,0,0,1-2.054,1.979,15.042,15.042,0,0,1-2.957,1.9,12.533,12.533,0,0,1-3.1,1.019,5.677,5.677,0,0,1-3.18-.309,12.765,12.765,0,0,1-3.177-1.869,23.208,23.208,0,0,1-2.566-2.363c-.179-.186-.342-.387-.515-.579a2.53,2.53,0,0,0-.2-.176l-.509.308c-1.089.653-2.167,1.322-3.264,1.952a6.472,6.472,0,0,1-2.641.918,5.522,5.522,0,0,1-2.477-.179,1.04,1.04,0,0,1-.771-1.09,3.392,3.392,0,0,1,1.406-2.857,9.274,9.274,0,0,1,2.832-1.47,21.128,21.128,0,0,1,3.175-.781c.415-.077.836-.111,1.278-.168.058-.116.125-.226.172-.343a68.523,68.523,0,0,1,2.854-6.245,48.157,48.157,0,0,1,3.107-5.242,24.636,24.636,0,0,1,3.814-4.332,20.32,20.32,0,0,1,4.074-2.887,14.044,14.044,0,0,1,3.031-1.224,7.08,7.08,0,0,1,2.37-.255,3.639,3.639,0,0,1,2.795,1.493,4.465,4.465,0,0,1,.842,1.954,4,4,0,0,1-.094,1.679,6.445,6.445,0,0,1-1.608,2.776,6.917,6.917,0,0,1-1.942,1.446,3.6,3.6,0,0,1-1.874.393,2.589,2.589,0,0,1-1.7-.83A.256.256,0,0,1,1565.362-1359.311Z" transform="translate(-1495.243 1368.135)" fill="#cd9200"/>
      <path id="Path_41204" data-name="Path 41204" d="M1316.805-1243.1c.621-.372,1.265-.758,1.91-1.135.71-.426,1.407-.852,2.129-1.254A8.507,8.507,0,0,1,1322-1246a2.707,2.707,0,0,1,.656-.1,1.02,1.02,0,0,1,.775.282,1.019,1.019,0,0,1,.312.764,4.792,4.792,0,0,1-.342,1.821,11.641,11.641,0,0,1-1.215,2.339c-.969,1.57-1.935,3.141-2.914,4.7-.448.716-.937,1.409-1.387,2.129a4.22,4.22,0,0,0-.609,1.38.838.838,0,0,0,0,.133,1.2,1.2,0,0,0,.23-.051,7.126,7.126,0,0,0,1.561-1.021,19.292,19.292,0,0,0,2.542-2.582q1.576-1.855,2.969-3.848c1.087-1.547,2.129-3.122,3.191-4.692a1.2,1.2,0,0,0,.115-.177.54.54,0,0,1,.474-.312c.383-.05.767-.1,1.15-.153.64-.082,1.277-.169,1.919-.242a1.3,1.3,0,0,1,.45.03.444.444,0,0,1,.3.252.443.443,0,0,1-.016.392c-.052.1-.117.2-.178.305-.426.692-.852,1.376-1.269,2.072-.55.93-1.087,1.869-1.628,2.8-.66,1.135-1.324,2.271-1.979,3.417-.766,1.334-1.531,2.67-2.281,4.015a5.532,5.532,0,0,0-.382.945c-.088.261.026.406.3.426a3.068,3.068,0,0,0,1.242-.209c.231-.085.458-.18.69-.266a.684.684,0,0,1,.161-.017,1,1,0,0,1,0,.214c-.1.4-.209.8-.3,1.2a.624.624,0,0,1-.275.389,21.545,21.545,0,0,1-3.548,2.093,5.9,5.9,0,0,1-1.987.585,1.162,1.162,0,0,1-1.35-.867,3.156,3.156,0,0,1,.014-1.4,11.717,11.717,0,0,1,.646-2.229.391.391,0,0,0,0-.116c-.152.013-.219.133-.305.216a31.274,31.274,0,0,1-3.513,2.935,11.593,11.593,0,0,1-2.013,1.159,4.256,4.256,0,0,1-1.222.322,1.15,1.15,0,0,1-1.168-.622,1.125,1.125,0,0,1-.055-.8,12.028,12.028,0,0,1,.756-2.485,45.281,45.281,0,0,1,1.952-4.142c.68-1.287,1.4-2.555,2.108-3.832.4-.718.82-1.419,1.222-2.144a.569.569,0,0,0,.126-.483c-.353-.077-.667.141-1.032.173a.588.588,0,0,1-.071-.175c-.01-.247-.01-.494-.011-.741C1316.805-1242.5,1316.805-1242.767,1316.805-1243.1Z" transform="translate(-1282.528 1255.211)" fill="#cd9200"/>
      <g id="Group_28208" data-name="Group 28208" transform="translate(0.35 35.978)">
        <path id="Path_41205" data-name="Path 41205" d="M911.745-869.468a2.49,2.49,0,0,1-1.009.22,2.462,2.462,0,0,1-1.155-.266,2.649,2.649,0,0,1-.864-.71,3.207,3.207,0,0,1-.541-1.032,3.967,3.967,0,0,1-.186-1.212,5.02,5.02,0,0,1,.173-1.333,3.42,3.42,0,0,1,.516-1.109,2.581,2.581,0,0,1,.851-.758,2.446,2.446,0,0,1,1.2-.284,3.15,3.15,0,0,1,.884.121,2.144,2.144,0,0,1,.742.382,2.2,2.2,0,0,1,.55.66,2.783,2.783,0,0,1,.3.965h-.768a1.8,1.8,0,0,0-.21-.633,1.448,1.448,0,0,0-.379-.436,1.6,1.6,0,0,0-.513-.255,2.119,2.119,0,0,0-.61-.085,1.673,1.673,0,0,0-.9.233,1.9,1.9,0,0,0-.613.614,2.842,2.842,0,0,0-.351.87,4.437,4.437,0,0,0-.114.994,3.559,3.559,0,0,0,.129.965,2.62,2.62,0,0,0,.379.816,1.915,1.915,0,0,0,.618.568,1.678,1.678,0,0,0,.852.211,1.872,1.872,0,0,0,.8-.162,1.683,1.683,0,0,0,.586-.444,1.916,1.916,0,0,0,.359-.664,2.4,2.4,0,0,0,.1-.822h-1.845v-.718h2.528v3.374h-.484l-.2-.8a1.955,1.955,0,0,1-.83.728Z" transform="translate(-907.989 875.957)" fill="#cd9200"/>
        <path id="Path_41206" data-name="Path 41206" d="M1001.527-873.789a1.779,1.779,0,0,1,1.289.449,1.632,1.632,0,0,1,.464,1.229,2.118,2.118,0,0,1-.238,1.023,1.241,1.241,0,0,1-.764.6v.018a.977.977,0,0,1,.407.179.959.959,0,0,1,.25.3,1.475,1.475,0,0,1,.142.39q.044.216.068.448a4.636,4.636,0,0,1,.024.476,4.555,4.555,0,0,0,.04.475,3.138,3.138,0,0,0,.092.444,1.133,1.133,0,0,0,.181.372h-.852a.565.565,0,0,1-.109-.27,2.963,2.963,0,0,1-.037-.382q-.009-.21-.016-.453a3.494,3.494,0,0,0-.048-.476q-.033-.233-.081-.444a1.1,1.1,0,0,0-.153-.368.782.782,0,0,0-.276-.251.93.93,0,0,0-.451-.094h-1.874v2.736h-.768v-6.407Zm.162,2.907a1.041,1.041,0,0,0,.426-.175.927.927,0,0,0,.284-.351,1.287,1.287,0,0,0,.109-.568,1.229,1.229,0,0,0-.243-.789.941.941,0,0,0-.783-.3h-1.906v2.234h1.6a2.8,2.8,0,0,0,.514-.045Z" transform="translate(-992.401 873.947)" fill="#cd9200"/>
        <path id="Path_41207" data-name="Path 41207" d="M1072.771-873.854a3.285,3.285,0,0,1,.521-1.072,2.6,2.6,0,0,1,.865-.745,2.5,2.5,0,0,1,1.2-.284,2.5,2.5,0,0,1,1.2.284,2.6,2.6,0,0,1,.865.745,3.318,3.318,0,0,1,.521,1.072,4.574,4.574,0,0,1,.173,1.26,4.559,4.559,0,0,1-.173,1.26,3.314,3.314,0,0,1-.521,1.072,2.555,2.555,0,0,1-.865.741,2.535,2.535,0,0,1-1.2.274,2.535,2.535,0,0,1-1.2-.274,2.553,2.553,0,0,1-.864-.741,3.291,3.291,0,0,1-.521-1.072,4.555,4.555,0,0,1-.173-1.26A4.563,4.563,0,0,1,1072.771-873.854Zm.71,2.217a2.741,2.741,0,0,0,.354.852,1.892,1.892,0,0,0,.622.606,1.723,1.723,0,0,0,.9.228,1.723,1.723,0,0,0,.905-.229,1.889,1.889,0,0,0,.622-.606,2.731,2.731,0,0,0,.355-.852,4.087,4.087,0,0,0,.114-.955,4.114,4.114,0,0,0-.114-.955,2.73,2.73,0,0,0-.355-.852,1.887,1.887,0,0,0-.622-.606,1.72,1.72,0,0,0-.905-.228,1.72,1.72,0,0,0-.9.228,1.892,1.892,0,0,0-.622.606,2.741,2.741,0,0,0-.354.852,4.1,4.1,0,0,0-.113.955,4.117,4.117,0,0,0,.109.955Z" transform="translate(-1060.976 875.956)" fill="#cd9200"/>
        <path id="Path_41208" data-name="Path 41208" d="M1167.7-867.854a2.218,2.218,0,0,1-1.681.615,2.441,2.441,0,0,1-1.74-.588,2.461,2.461,0,0,1-.626-1.871v-4.092h.768v4.092a1.856,1.856,0,0,0,.411,1.306,1.54,1.54,0,0,0,1.188.444,1.4,1.4,0,0,0,1.119-.444,1.947,1.947,0,0,0,.383-1.306v-4.092h.768v4.092A2.572,2.572,0,0,1,1167.7-867.854Z" transform="translate(-1145.434 873.948)" fill="#cd9200"/>
        <path id="Path_41209" data-name="Path 41209" d="M1249.228-873.789a1.685,1.685,0,0,1,1.32.5,2.014,2.014,0,0,1,.449,1.4,2.032,2.032,0,0,1-.449,1.4,1.652,1.652,0,0,1-1.32.494h-1.76v2.62h-.768v-6.407Zm-.258,3.069a1.277,1.277,0,0,0,.957-.3,1.194,1.194,0,0,0,.3-.88,1.179,1.179,0,0,0-.3-.876,1.316,1.316,0,0,0-.957-.3h-1.5v2.352Z" transform="translate(-1222.559 873.947)" fill="#cd9200"/>
        <path id="Path_41210" data-name="Path 41210" d="M1353.851-873.79v6.407h-.768v-6.407Z" transform="translate(-1321.371 873.948)" fill="#cd9200"/>
        <path id="Path_41211" data-name="Path 41211" d="M1382.953-873.79l3.037,5.2h.017v-5.2h.727v6.407h-.84l-3.013-5.142h-.016v5.142h-.727v-6.407Z" transform="translate(-1348.344 873.948)" fill="#cd9200"/>
        <path id="Path_41212" data-name="Path 41212" d="M1456.147-873.072v-.718h4.612v.718h-1.922v5.689h-.768v-5.689Z" transform="translate(-1417.077 873.948)" fill="#cd9200"/>
        <path id="Path_41213" data-name="Path 41213" d="M1534.483-873.79v.718h-3.215v2.037h3v.718h-3v2.217h3.239v.718H1530.5v-6.407Z" transform="translate(-1486.136 873.948)" fill="#cd9200"/>
        <path id="Path_41214" data-name="Path 41214" d="M1603.106-873.789a1.777,1.777,0,0,1,1.289.448,1.631,1.631,0,0,1,.464,1.229,2.122,2.122,0,0,1-.239,1.024,1.239,1.239,0,0,1-.763.6v.018a.973.973,0,0,1,.407.179.944.944,0,0,1,.25.3,1.476,1.476,0,0,1,.142.39c.03.148.052.3.068.448s.019.314.024.476a4.522,4.522,0,0,0,.04.475,3.1,3.1,0,0,0,.093.444,1.138,1.138,0,0,0,.182.372h-.851a.563.563,0,0,1-.109-.27,3.011,3.011,0,0,1-.037-.382q-.008-.21-.015-.453a3.4,3.4,0,0,0-.048-.476q-.032-.233-.081-.444a1.107,1.107,0,0,0-.153-.368.78.78,0,0,0-.274-.251.931.931,0,0,0-.451-.094h-1.874v2.736h-.768v-6.407Zm.162,2.907a1.046,1.046,0,0,0,.426-.175.927.927,0,0,0,.284-.35,1.285,1.285,0,0,0,.109-.568,1.231,1.231,0,0,0-.243-.789.942.942,0,0,0-.783-.305h-1.906v2.234h1.6a2.775,2.775,0,0,0,.514-.045Z" transform="translate(-1551.041 873.947)" fill="#cd9200"/>
        <path id="Path_41215" data-name="Path 41215" d="M1679.455-873.79l3.036,5.2h.017v-5.2h.726v6.407h-.84l-3.013-5.142h-.016v5.142h-.726v-6.407Z" transform="translate(-1623.712 873.948)" fill="#cd9200"/>
        <path id="Path_41216" data-name="Path 41216" d="M1754.826-873.79l2.254,6.407h-.851l-.63-1.929h-2.44l-.646,1.929h-.784l2.245-6.407Zm.532,3.76-.961-2.989h-.016l-.977,2.989Z" transform="translate(-1691.592 873.948)" fill="#cd9200"/>
        <path id="Path_41217" data-name="Path 41217" d="M1816.249-873.072v-.718h4.612v.718h-1.922v5.689h-.768v-5.689Z" transform="translate(-1751.513 873.948)" fill="#cd9200"/>
        <path id="Path_41218" data-name="Path 41218" d="M1891.827-873.79v6.407h-.766v-6.407Z" transform="translate(-1821.022 873.948)" fill="#cd9200"/>
        <path id="Path_41219" data-name="Path 41219" d="M1915.827-873.854a3.285,3.285,0,0,1,.521-1.072,2.591,2.591,0,0,1,.864-.745,2.5,2.5,0,0,1,1.2-.284,2.5,2.5,0,0,1,1.2.284,2.6,2.6,0,0,1,.865.745,3.3,3.3,0,0,1,.52,1.072,4.526,4.526,0,0,1,.174,1.26,4.545,4.545,0,0,1-.173,1.26,3.3,3.3,0,0,1-.521,1.072,2.548,2.548,0,0,1-.864.741,2.532,2.532,0,0,1-1.2.274,2.531,2.531,0,0,1-1.2-.274,2.541,2.541,0,0,1-.865-.741,3.3,3.3,0,0,1-.521-1.072,4.533,4.533,0,0,1-.175-1.26A4.531,4.531,0,0,1,1915.827-873.854Zm.71,2.217a2.725,2.725,0,0,0,.356.852,1.883,1.883,0,0,0,.622.606,1.717,1.717,0,0,0,.9.228,1.717,1.717,0,0,0,.9-.228,1.888,1.888,0,0,0,.622-.606,2.76,2.76,0,0,0,.355-.852,4.106,4.106,0,0,0,.114-.955,4.121,4.121,0,0,0-.113-.955,2.764,2.764,0,0,0-.355-.851,1.893,1.893,0,0,0-.621-.606,1.715,1.715,0,0,0-.9-.229,1.719,1.719,0,0,0-.9.229,1.884,1.884,0,0,0-.621.606,2.725,2.725,0,0,0-.357.851,4.05,4.05,0,0,0-.113.955,4.057,4.057,0,0,0,.11.955Z" transform="translate(-1843.826 875.956)" fill="#cd9200"/>
        <path id="Path_41220" data-name="Path 41220" d="M2007.869-873.79l3.036,5.2h.017v-5.2h.727v6.407h-.841l-3.013-5.142h-.016v5.142h-.727v-6.407Z" transform="translate(-1928.62 873.948)" fill="#cd9200"/>
        <path id="Path_41221" data-name="Path 41221" d="M2083.24-873.79l2.254,6.407h-.852l-.631-1.929h-2.438l-.646,1.929h-.784l2.246-6.407Zm.534,3.76-.961-2.989h-.015l-.979,2.989Z" transform="translate(-1996.554 873.948)" fill="#cd9200"/>
        <path id="Path_41222" data-name="Path 41222" d="M2164.649-873.79v5.689h3.053v.718h-3.821v-6.407Z" transform="translate(-2074.377 873.948)" fill="#cd9200"/>
      </g>
    </g>
  </g>
</svg>
