<svg xmlns="http://www.w3.org/2000/svg" xmlns:xlink="http://www.w3.org/1999/xlink" width="156" height="78" viewBox="0 0 156 78">
  <defs>
    <clipPath id="clip-path">
      <rect id="Rectangle_20446" data-name="Rectangle 20446" width="156" height="78" transform="translate(1309 853)" fill="none" stroke="#f0f0f0" stroke-width="1"/>
    </clipPath>
  </defs>
  <g id="Mask_Group_4828" data-name="Mask Group 4828" transform="translate(-1309 -853)" clip-path="url(#clip-path)">
    <g id="client-6" transform="translate(2409.791 3879.346)">
      <g id="Group_28209" data-name="Group 28209" transform="translate(-1045.791 -3014.346)">
        <path id="Path_41239" data-name="Path 41239" d="M-1023.25-3014.346c.371,1.13.713,2.17,1.051,3.213q2.031,6.256,4.059,12.516c.242.748.226.754,1.015.754h15.892a4.548,4.548,0,0,1,.471.048l.01.072c-.092.072-.182.138-.275.212l-12.091,8.838c-.34.249-.672.51-1.005.767-.386.3-.42.414-.275.865l3.8,11.764q.614,1.9,1.223,3.811c.03.092.048.188.088.353-.118-.072-.185-.106-.244-.15l-13.171-9.6c-.519-.378-.6-.378-1.132.007l-12.945,9.434c-.124.089-.252.172-.432.293a2.277,2.277,0,0,1,.044-.259c.438-1.377.851-2.754,1.333-4.119a4.316,4.316,0,0,1,.758-1.227,100.577,100.577,0,0,1,15.309-14.958c.659-.526,1.34-1.023,2-1.542a3.548,3.548,0,0,0,.366-.38l-.05-.084c-.563.138-1.135.237-1.686.406a50.931,50.931,0,0,0-12.492,5.434.643.643,0,0,1-.826-.033q-6.523-4.82-13.053-9.622a3.133,3.133,0,0,1-.286-.267l.03-.07h16.54c.541,0,.61-.05.779-.572l5.035-15.485C-1023.369-3014.038-1023.321-3014.153-1023.25-3014.346Z" transform="translate(1045.791 3014.346)" fill="#ff8c00"/>
        <path id="Path_41240" data-name="Path 41240" d="M-833.861-2160.841c.138-.354.259-.688.4-1.011a.241.241,0,0,1,.208-.08c.384.077.761.2,1.148.253a3.18,3.18,0,0,0,1.6-.072.862.862,0,0,0,.614-.736.811.811,0,0,0-.454-.914c-.468-.225-.953-.413-1.427-.633a8.507,8.507,0,0,1-.862-.414,2.043,2.043,0,0,1-.98-2.157,2.283,2.283,0,0,1,2.115-2.066,4.572,4.572,0,0,1,2.139.172c.587.184.775.662.457,1.116a.3.3,0,0,1-.369.137,4.533,4.533,0,0,0-1.947-.187,1.764,1.764,0,0,0-.487.171.815.815,0,0,0-.452.677.814.814,0,0,0,.359.729,7.317,7.317,0,0,0,.975.494c.559.275,1.14.5,1.672.815a1.928,1.928,0,0,1,.872,2.1,2.083,2.083,0,0,1-1.351,1.79,5.093,5.093,0,0,1-2.515.242,13.158,13.158,0,0,1-1.443-.3A2.17,2.17,0,0,1-833.861-2160.841Z" transform="translate(845.515 2215.237)" fill="#ff8c00"/>
        <path id="Path_41241" data-name="Path 41241" d="M-637.086-2127.254a3.2,3.2,0,0,1-1.675.529,2.076,2.076,0,0,1-2.216-1.591,4.576,4.576,0,0,1,.049-2.938,2.709,2.709,0,0,1,2.243-1.79,7.128,7.128,0,0,1,2.772.164c.191.04.158.171.158.293v4.287c.018.43.144.566.57.618.336.041.463.3.225.551a1.146,1.146,0,0,1-.625.332,1.4,1.4,0,0,1-1.5-.456Zm-.176-2.775v-1.291c-.008-.661.12-.583-.631-.625a1.439,1.439,0,0,0-1.569.9,3.247,3.247,0,0,0,.076,2.43,1,1,0,0,0,.762.608,1.962,1.962,0,0,0,1.155-.1.3.3,0,0,0,.211-.333c-.011-.527,0-1.063,0-1.594Z" transform="translate(663.443 2181.583)" fill="#ff8c00"/>
        <path id="Path_41242" data-name="Path 41242" d="M-725.615-2153.189a4.22,4.22,0,0,1-2.626.235,1.454,1.454,0,0,1-1.008-1.588c0-1.053-.01-2.108,0-3.167,0-.246-.076-.327-.311-.31s-.435,0-.719,0c.07-.336.12-.628.2-.909.015-.051.167-.084.256-.086.534-.019.536-.015.571-.551.018-.257.021-.514.047-.767.008-.072.067-.186.121-.2.427-.087.859-.153,1.332-.232,0,.453.014.881,0,1.307-.012.262.069.354.339.344.539-.018,1.08,0,1.673,0-.058.342-.1.661-.178.975-.014.055-.154.112-.24.115-.384.013-.77,0-1.154,0-.432,0-.432,0-.432.445v2.479c0,.9.307,1.165,1.206,1.039.212-.03.479-.137.627-.042s.138.375.2.574C-725.677-2153.423-725.652-2153.325-725.615-2153.189Z" transform="translate(747.626 2207.696)" fill="#ff8c00"/>
        <path id="Path_41243" data-name="Path 41243" d="M-521.283-2126.1c-.482,0-.92.009-1.358-.01-.057,0-.15-.138-.154-.216-.017-.357-.008-.713-.008-1.072v-3.161c0-.551-.109-.8-.689-.779-.061,0-.186-.124-.176-.17a.913.913,0,0,1,.18-.481,1.632,1.632,0,0,1,1.686-.072,3.448,3.448,0,0,1,.449.5,2.614,2.614,0,0,1,2.429-.628c-.138.4-.255.786-.4,1.165-.019.051-.138.087-.2.1-.326.037-.656.052-.98.1a2.068,2.068,0,0,0-.413.129.513.513,0,0,0-.372.577c.021,1.228.008,2.455.008,3.682Z" transform="translate(552.379 2180.773)" fill="#ff8c00"/>
      </g>
    </g>
  </g>
</svg>
