<svg xmlns="http://www.w3.org/2000/svg" xmlns:xlink="http://www.w3.org/1999/xlink" width="156" height="78" viewBox="0 0 156 78">
  <defs>
    <clipPath id="clip-path">
      <rect id="Rectangle_20446" data-name="Rectangle 20446" width="156" height="78" transform="translate(778 853)" fill="none" stroke="#f0f0f0" stroke-width="1"/>
    </clipPath>
  </defs>
  <g id="Mask_Group_4825" data-name="Mask Group 4825" transform="translate(-778 -853)" clip-path="url(#clip-path)">
    <g id="Group_4127" data-name="Group 4127" transform="translate(-2057.993 1903.116)">
      <g id="Group_4125" data-name="Group 4125" transform="translate(2850.993 -1029.116)">
        <path id="Rectangle_1" data-name="Rectangle 1" d="M0,0H125.769V32.82H0Z" transform="translate(0.008)" fill="#ffdb00"/>
        <path id="Path_9023" data-name="Path 9023" d="M-.142,0H125.633V14.707H-.143Z" transform="translate(0.143 21.143)" fill="#ff000c"/>
      </g>
      <g id="Group_4126" data-name="Group 4126" transform="translate(2858.024 -1023.487)">
        <path id="Path_8871" data-name="Path 8871" d="M2137.553,185.439c-.7.061-1.38.122-2.058.183-.016,0-.03.027-.066.062a10.7,10.7,0,0,1-.2,2.058l1.958.91a9.893,9.893,0,0,1-1.023,2.5l-.941-.482c-.308-.159-.619-.325-.948-.5a9.389,9.389,0,0,1-1.375,1.584l1.444,1.678c-.006.059,0,.085-.014.1a.418.418,0,0,1-.083.1c-.425.341-.842.683-1.276,1.012-.22.165-.465.292-.716.447-.52-.6-.954-1.243-1.457-1.866a5.22,5.22,0,0,0-.683.441,1.839,1.839,0,0,0-.737,1.65,2.508,2.508,0,0,0,.194.569,1.738,1.738,0,0,0,.114.209h-.878a1.268,1.268,0,0,1,.369.807,1.232,1.232,0,0,1-.292.847c.349.177.7.278,1.043.413s.713.266,1.069.4.694.256,1.038.391.7.3,1.062.429.691.257,1.036.38v3.619h-1.579a5.656,5.656,0,0,0-2.215-1.137,4.912,4.912,0,0,0-1.394-.273,6.146,6.146,0,0,1-.717-.113,1.288,1.288,0,0,0-.193-.008c-.4,0-.8-.014-1.2,0-.265.011-.523.066-.785.1a1.1,1.1,0,0,1-.189.021,3.291,3.291,0,0,0-.719.108c-.219.038-.434.076-.65.133a5.547,5.547,0,0,0-.977.367,8.709,8.709,0,0,0-1.345.73.505.505,0,0,1-.265.084c-.515.008-1.031,0-1.541,0-.049-.276-.067-2.908-.023-3.68.863-.332,1.744-.651,2.624-.973s1.758-.659,2.641-.991a1.108,1.108,0,0,1,.029-1.652h-.75a2.082,2.082,0,0,0,.216-1.542,1.684,1.684,0,0,0-.642-.863,2.067,2.067,0,0,0-.924-.384l-1.075,1.9a9.561,9.561,0,0,1-2.389-1.78l1.358-1.615-1.268-1.688-1.808,1.085a10.3,10.3,0,0,1-1.088-2.751c.669-.306,1.355-.5,1.991-.763-.054-.356-.125-.7-.151-1.044s0-.682,0-1.059l-2.132-.252a10.621,10.621,0,0,1,.5-2.843l2.069.515c.133-.3.26-.6.4-.89s.308-.581.473-.886l-1.621-1.316a7,7,0,0,1,1.809-2.089l.2.19,1.365,1.289a8.7,8.7,0,0,1,1.66-1.062,1.36,1.36,0,0,0-.06-.228c-.234-.547-.476-1.093-.713-1.64a.407.407,0,0,1-.014-.092,6.794,6.794,0,0,1,2.692-.831c.227.682.332,1.4.521,2.095a12.086,12.086,0,0,1,2.022,0,8.571,8.571,0,0,0,.213-1.058c.066-.362.144-.721.216-1.084a9.269,9.269,0,0,1,2.713.809c-.242.683-.478,1.352-.723,2.048a9.028,9.028,0,0,1,1.706,1.1l1.527-1.546a10.662,10.662,0,0,1,1.844,2.124,7.169,7.169,0,0,1-.849.682c-.269.228-.56.422-.85.636A9.3,9.3,0,0,1,2135,183.2l2.08-.384c.024.029.066.057.075.093a13.607,13.607,0,0,1,.4,2.523Zm-8.319,14.992h-.332c.086.372.383.38.623.455.434-.133.549-.455.471-.929-.324-.4-.6-.465-1-.228l-.086.266c.023.228.18.327.317.44Zm2.777,1.032c-.125.023-.228-.141-.363-.04.048.383.367.448.638.56.471-.145.592-.341.55-.868a.8.8,0,0,0-.863-.412.5.5,0,0,0-.227.4l.266.367Zm-12.149-15.353c.034.3.066.77.146,1.231a6.684,6.684,0,0,0,.568,1.785,8.069,8.069,0,0,0,1,1.565,6.936,6.936,0,0,0,1.351,1.273,7.62,7.62,0,0,0,1.417.8,7.253,7.253,0,0,0,2.537.562,3.508,3.508,0,0,0,.93-.046c.237-.052.491-.035.73-.09a7.551,7.551,0,0,0,1.906-.708,7.125,7.125,0,0,0,2.106-1.706,8.256,8.256,0,0,0,1.081-1.694,7.639,7.639,0,0,0,.7-2.926,5.348,5.348,0,0,0-.066-1.183,8.426,8.426,0,0,0-.436-1.691,7.054,7.054,0,0,0-1.261-2.142,7.35,7.35,0,0,0-2.511-1.906,7.025,7.025,0,0,0-4.155-.553,7.215,7.215,0,0,0-4.456,2.713,7.726,7.726,0,0,0-1.578,4.714Zm13.235,16.531a1.2,1.2,0,0,1-.332-.08,11.192,11.192,0,0,0-1.667-.812,7.976,7.976,0,0,0-.808-.291,4.719,4.719,0,0,0-1.024-.2c-.3-.022-.588-.1-.882-.114-.612-.021-1.226-.01-1.837-.011a2.412,2.412,0,0,0-.388.014c-.481.078-.963.153-1.44.255a8.375,8.375,0,0,0-1.2.319,14.4,14.4,0,0,0-1.429.643,1.229,1.229,0,0,1-.782.114v-2.1l.4-.149,1.161-.448c.664-.256,1.328-.509,1.992-.767q.446-.173.888-.358a.667.667,0,0,0,.211-.139.164.164,0,0,0-.1-.285.649.649,0,0,0-.282.033c-.5.187-.992.384-1.489.574-.764.293-1.527.584-2.294.877-.315.121-.629.246-.929.364v2.8c.25,0,.485-.013.719,0a1.111,1.111,0,0,0,.581-.139,9.381,9.381,0,0,1,1.278-.588c.546-.175,1.1-.317,1.66-.455a7.435,7.435,0,0,1,1.479-.228,11.319,11.319,0,0,1,2.656.1,10.579,10.579,0,0,1,1.209.276,11.391,11.391,0,0,1,2.08.975.651.651,0,0,0,.26.107c.256.015.511,0,.8,0,0-.979,0-1.933-.007-2.873l-4.865-1.9-.166.1v.3c1.523.622,3.058,1.208,4.567,1.829Zm-5.477-5.131c.42-.472.432-.885.045-1.207a.709.709,0,0,0-1.023.158c-.251.321-.154.735.265,1.059V200.5l.322.2c.342-.137.383-.189.387-.5V197.51Zm4.976-3.231v-.767l.828.164.274-.252-1.039-1.413a.636.636,0,0,0-.342.316l.551.756c-.234.034-.431-.158-.676-.041v.625l-.6-.8a.6.6,0,0,0-.37.285l1.045,1.423Zm-10.888-2.239c-.17.254-.322.485-.479.713a3.918,3.918,0,0,0-.472.73l.314.228.73-.181c.034.27.067.531.1.8l.317.228c.179-.255.354-.483.507-.726a4.925,4.925,0,0,0,.465-.705l-.364-.271-.525.767c-.162-.179-.029-.42-.138-.635l-.62.143.549-.807Zm-3.564-7.573,1.148-.656c0-.141.133-.26.042-.407l-1.606-.341a.533.533,0,0,0-.1.465c.275.114.6.091.884.22-.292.167-.569.341-.868.489a.467.467,0,0,0-.276.558c.542.139,1.086.257,1.649.354.027-.171.133-.3.067-.465ZM2136.4,185c.444-.159.579-.366.522-.787-.024-.177-.066-.353-.105-.528-.019-.09-.04-.181-.067-.284l-1.784.324.1.509.672-.113a.341.341,0,0,1-.171.426c-.142.089-.275.193-.421.3.039.175.071.332.114.5a2.8,2.8,0,0,0,.738-.528Zm-14.557-5.573c-.319-.141-.639-.206-.945-.311l-.943-.322a.36.36,0,0,0-.075.048c-.1.124-.2.248-.312.388.341.576.612,1.2,1,1.793l.3-.4-.157-.332.441-.578.394.121Zm12.144-1.074-.816.8a.682.682,0,0,0-.178.757,1.228,1.228,0,0,0,.541.655.615.615,0,0,0,.721,0,2.074,2.074,0,0,0,.2-.155c.162-.14.323-.281.48-.428a.992.992,0,0,0,.246-.266l-.332-.341c-.106.1-.2.2-.306.29-.15.137-.3.279-.455.4a.374.374,0,0,1-.521-.009.425.425,0,0,1-.049-.557,1.8,1.8,0,0,1,.257-.24,3.089,3.089,0,0,0,.541-.56Zm2.267,11.552.206-.442-1.425-1.413-.2.434.266.295-.266.664-.4.022-.163.441Zm-16.777-1.377c-.061-.155-.07-.332-.227-.438a12.246,12.246,0,0,0-1.188,1.4c.086.148.077.349.249.477a.878.878,0,0,0,.216,0,4.177,4.177,0,0,1,.925-.051c.2,0,.4,0,.62-.008l-.107-.228c-.029-.066-.061-.151-.094-.228h-.341l-.286-.664Zm9.377-10.907.423.159c.156-.2.156-.443.28-.669a1.433,1.433,0,0,0,.784.062l.246-.228c.008-.113.013-.161.015-.215a.544.544,0,0,0-.446-.639c-.236-.081-.475-.159-.741-.248Zm-4.2-.455c.133-.054.26-.107.389-.153a.558.558,0,0,0,.341-.353.525.525,0,0,0-.366-.689,1.04,1.04,0,0,0-.382.011,5.6,5.6,0,0,0-.569.179,2.1,2.1,0,0,0-.213.1c.172.581.341,1.145.506,1.717l.483-.147Zm1.115,22.838.435-.114V199.5l-.438.1c-.015,0-.034-.017-.058-.031v-.114l.561-.228c-.012-.149.055-.295-.107-.388l-.779.309a7.113,7.113,0,0,0,.034,1.619l.937-.2c-.01-.137-.017-.249-.026-.391l-.559.083Zm-2.357-.114-.379.169c.066.48-.095.929-.045,1.4l.3-.151c.034-.212.066-.407.1-.62l.257.471.371-.107a11.873,11.873,0,0,0,.036-1.413l-.28.141-.106.6Zm4.549-5.591v1.283a.348.348,0,0,0,.428,0c.011-.145.021-.289.033-.437.265.007.51,0,.6-.284a.471.471,0,0,0-.227-.569h-.622a1.187,1.187,0,0,0-.212,0Zm-6.514,7.387c-.027.314-.027.314.158.482.455-.083.683-.376.8-.975l-.153-.256h-.448l.151-.187.133.143.255-.145c.024-.137.026-.242-.089-.308a.6.6,0,0,0-.713.443.386.386,0,0,0,.155.52l.311.021c.033.163-.055.228-.162.3-.043-.07-.076-.124-.114-.181Zm3.606-2.334a.548.548,0,0,0-.557.172,1.118,1.118,0,0,0-.314.682.664.664,0,0,0,.257.735.648.648,0,0,0,.781-.689h-.287c-.114.1-.054.341-.292.3a.523.523,0,0,1,.143-.767l.171.121.306-.228Zm1.18-3.673a1.028,1.028,0,0,0,.161-.212c.133-.325.249-.654.369-.984a.814.814,0,0,0,.02-.182h-.357l-.249.614c-.114-.2-.1-.439-.258-.625l-.374.019a11.634,11.634,0,0,0,.434,1.279Zm.863-1.378a.864.864,0,0,0-.2,1.115.508.508,0,0,0,.517.227c.083-.021.158-.057.247-.089l.177-.355c-.105-.155-.235-.121-.341-.114l-.171.188a.189.189,0,0,1-.14-.214,1.1,1.1,0,0,1,.045-.309c.031-.076.121-.082.19-.023a1.056,1.056,0,0,1,.1.113l.307-.113a.646.646,0,0,0-.311-.423Zm3.972,5.856c-.236.142-.455.276-.672.4a.217.217,0,0,0-.109.3l.505.207c-.021.085-.04.163-.058.241.115.066.207.133.342.09l.084-.174.133.031.08-.179-.148-.124.213-.636Zm-8.553.1c.077.493-.114.969-.034,1.469l.309-.161a4.473,4.473,0,0,0,.06-.736c-.018-.238.139-.469.025-.724Zm6.02.374c0-.215.01-.4,0-.579s.051-.384-.062-.562h-.324v.569a3.181,3.181,0,0,0,.02.568Z" transform="translate(-2116.977 -175.407)" fill="#251e1e"/>
        <path id="Path_8872" data-name="Path 8872" d="M2161.79,232.031a7.724,7.724,0,0,1,1.575-4.71,7.216,7.216,0,0,1,4.457-2.713,7.021,7.021,0,0,1,4.155.552,7.343,7.343,0,0,1,2.511,1.906,7.085,7.085,0,0,1,1.261,2.142,8.525,8.525,0,0,1,.436,1.691,5.377,5.377,0,0,1,.066,1.183,7.668,7.668,0,0,1-.7,2.926,8.2,8.2,0,0,1-1.081,1.694,7.111,7.111,0,0,1-2.106,1.706,7.543,7.543,0,0,1-1.906.708c-.237.054-.491.037-.73.09a3.508,3.508,0,0,1-.929.046,7.255,7.255,0,0,1-2.536-.562,7.6,7.6,0,0,1-1.417-.8,6.878,6.878,0,0,1-1.35-1.274,8.032,8.032,0,0,1-1-1.565,6.667,6.667,0,0,1-.569-1.785C2161.859,232.8,2161.825,232.331,2161.79,232.031Zm.664-.2a6.017,6.017,0,0,0,.169,1.7,7.333,7.333,0,0,0,.7,1.78,6.307,6.307,0,0,0,1.156,1.527,7.533,7.533,0,0,0,.923.743,6.316,6.316,0,0,0,3.692,1.137,8.511,8.511,0,0,0,1.012-.114,5.418,5.418,0,0,0,1.783-.569,6.4,6.4,0,0,0,1.727-1.261,6.888,6.888,0,0,0,1.987-4.289,6.5,6.5,0,0,0-.067-1.762,7.436,7.436,0,0,0-.742-2.161,6.57,6.57,0,0,0-1.844-2.191,6.435,6.435,0,0,0-1.581-.9,6.142,6.142,0,0,0-1.726-.41,6.534,6.534,0,0,0-3.386.606,6.745,6.745,0,0,0-3.5,4.094,5.654,5.654,0,0,0-.288,2.065Z" transform="translate(-2158.911 -221.329)" fill="#fff"/>
        <path id="Path_8873" data-name="Path 8873" d="M2189.438,532.532v-2.246c-1.51-.621-3.045-1.207-4.568-1.829v-.3l.167-.1,4.864,1.9c.012.941,0,1.893.007,2.873-.282,0-.538.009-.8,0a.645.645,0,0,1-.261-.107,11.383,11.383,0,0,0-2.081-.975,10.55,10.55,0,0,0-1.208-.276,11.32,11.32,0,0,0-2.655-.1,7.447,7.447,0,0,0-1.479.228c-.557.133-1.11.274-1.66.455a9.465,9.465,0,0,0-1.278.588,1.112,1.112,0,0,1-.582.139c-.228-.016-.469,0-.72,0v-2.8c.3-.114.616-.244.929-.364.764-.293,1.527-.584,2.295-.877.5-.191.989-.388,1.488-.574a.655.655,0,0,1,.283-.033.165.165,0,0,1,.1.285.661.661,0,0,1-.213.139q-.441.187-.888.359c-.664.258-1.328.512-1.992.767l-1.161.448-.4.149v2.1a1.231,1.231,0,0,0,.782-.113,14.412,14.412,0,0,1,1.428-.643,8.376,8.376,0,0,1,1.2-.319c.477-.1.959-.177,1.44-.255a2.376,2.376,0,0,1,.387-.014c.613,0,1.226-.009,1.838.011.3.009.588.09.884.114a4.688,4.688,0,0,1,1.024.2c.274.083.544.182.809.291a11.169,11.169,0,0,1,1.666.812,1.217,1.217,0,0,0,.342.06Z" transform="translate(-2173.325 -505.296)" fill="#fff"/>
        <path id="Path_8874" data-name="Path 8874" d="M2265.9,498.077v2.689c0,.307-.041.358-.387.5l-.323-.2v-2.975c-.418-.324-.518-.737-.266-1.059a.711.711,0,0,1,1.024-.158C2266.327,497.192,2266.316,497.609,2265.9,498.077Z" transform="translate(-2255.25 -475.971)" fill="#fff"/>
        <path id="Path_8875" data-name="Path 8875" d="M2339.078,434.852l-.332.3-1.045-1.423a.6.6,0,0,1,.368-.285l.6.8v-.625c.245-.114.442.075.676.041l-.551-.756a.636.636,0,0,1,.342-.316l1.038,1.413-.274.252-.828-.164Z" transform="translate(-2323.46 -415.979)" fill="#fff"/>
        <path id="Path_8876" data-name="Path 8876" d="M2176.525,433.02l.382.287-.549.807.62-.143c.108.216-.024.455.138.635l.525-.767.363.271a4.828,4.828,0,0,1-.465.705c-.154.242-.332.472-.507.727l-.316-.228c-.034-.272-.066-.531-.1-.8l-.73.181-.314-.228a3.859,3.859,0,0,1,.473-.73C2176.208,433.5,2176.355,433.272,2176.525,433.02Z" transform="translate(-2171.802 -416.385)" fill="#fff"/>
        <path id="Path_8877" data-name="Path 8877" d="M2123.755,295.334l.94.228c.066.165-.037.291-.066.465-.569-.1-1.106-.215-1.648-.354a.469.469,0,0,1,.277-.558c.3-.145.575-.323.868-.489-.289-.133-.609-.114-.885-.22a.533.533,0,0,1,.1-.465l1.607.341c.092.148-.039.266-.042.407Z" transform="translate(-2122.593 -286.273)" fill="#fff"/>
        <path id="Path_8878" data-name="Path 8878" d="M2397.153,300.834l-.4-.187a2.8,2.8,0,0,1-.738.528l-.114-.5c.146-.1.279-.211.422-.3a.34.34,0,0,0,.169-.426l-.671.114c-.038-.18-.066-.332-.105-.509l1.785-.324c.024.1.045.195.066.284.036.177.081.351.105.528C2397.733,300.467,2397.6,300.671,2397.153,300.834Zm-.166-.6c.227,0,.278-.017.294-.123s-.045-.284-.126-.3l-.265.094Z" transform="translate(-2377.741 -291.232)" fill="#fff"/>
        <path id="Path_8879" data-name="Path 8879" d="M2159.374,228.458l-.308.408-.393-.121-.442.578.157.332-.3.4c-.381-.594-.649-1.217-1-1.793.114-.14.212-.266.313-.388a.391.391,0,0,1,.077-.048l.943.322C2158.736,228.251,2159.055,228.317,2159.374,228.458Zm-1.043.153-.626-.208.312.542Z" transform="translate(-2154.521 -224.434)" fill="#fff"/>
        <path id="Path_8880" data-name="Path 8880" d="M2365.43,220.986l.325.341a3.065,3.065,0,0,1-.542.56,1.8,1.8,0,0,0-.256.24.424.424,0,0,0,.05.558.373.373,0,0,0,.521.009c.16-.124.307-.265.454-.4.1-.092.2-.19.306-.29l.332.341a.979.979,0,0,1-.244.266c-.155.147-.318.287-.479.427a2.075,2.075,0,0,1-.2.155.614.614,0,0,1-.72,0,1.231,1.231,0,0,1-.543-.655.682.682,0,0,1,.18-.758Z" transform="translate(-2348.43 -218.036)" fill="#fff"/>
        <path id="Path_8881" data-name="Path 8881" d="M2386.882,373.06H2384.9l.163-.441.4-.022.266-.664-.266-.295.205-.434,1.424,1.413C2387.019,372.767,2386.95,372.906,2386.882,373.06Zm-.864-.834-.155.378a3.4,3.4,0,0,0,.586-.009Z" transform="translate(-2367.607 -358.559)" fill="#fff"/>
        <path id="Path_8882" data-name="Path 8882" d="M2135.221,372.3l-.234.257.285.664h.342c.032.078.062.155.094.228s.061.133.107.228c-.219,0-.42,0-.621.008a4.193,4.193,0,0,0-.925.051.879.879,0,0,1-.216,0c-.171-.126-.163-.329-.248-.477a12.079,12.079,0,0,1,1.188-1.4C2135.152,371.963,2135.164,372.144,2135.221,372.3Zm-.316.91-.183-.357-.394.428Z" transform="translate(-2132.736 -359.172)" fill="#fff"/>
        <path id="Path_8883" data-name="Path 8883" d="M2300.99,183.835c.188-.6.373-1.18.569-1.781.265.089.5.167.742.248a.543.543,0,0,1,.446.639c0,.054-.008.107-.015.215l-.246.228a1.432,1.432,0,0,1-.785-.062c-.124.228-.124.474-.281.669Zm.822-.917.3.113.172-.206a.407.407,0,0,0-.383-.228Z" transform="translate(-2289.12 -181.616)" fill="#fff"/>
        <path id="Path_8884" data-name="Path 8884" d="M2224.287,185.025l.185.664-.482.147-.505-1.718a2.117,2.117,0,0,1,.213-.1,5.61,5.61,0,0,1,.568-.179,1.039,1.039,0,0,1,.381-.009.525.525,0,0,1,.365.689.559.559,0,0,1-.341.353C2224.549,184.918,2224.424,184.971,2224.287,185.025Zm-.108-.355a2.178,2.178,0,0,0,.317-.182.18.18,0,0,0,.028-.169.189.189,0,0,0-.146-.091,1.455,1.455,0,0,0-.294.077Z" transform="translate(-2216.615 -183.265)" fill="#fff"/>
        <path id="Path_8885" data-name="Path 8885" d="M2247.2,539.175v.228l.559-.083c.01.141.018.255.027.391l-.936.2a7.185,7.185,0,0,1-.034-1.619l.78-.309c.161.094.093.239.106.388l-.561.228v.113c.025.014.044.035.057.031.142-.03.284-.062.438-.1v.4Z" transform="translate(-2238.419 -514.577)" fill="#fff"/>
        <path id="Path_8886" data-name="Path 8886" d="M2210.393,550.957l.256.482c.038-.206.071-.387.107-.6l.28-.141a11.671,11.671,0,0,1-.036,1.413l-.37.107-.257-.471c-.034.213-.066.408-.1.62l-.3.151c-.05-.471.113-.919.044-1.4Z" transform="translate(-2203.968 -526.471)" fill="#fff"/>
        <path id="Path_8887" data-name="Path 8887" d="M2287.14,467.878c.086,0,.15-.009.212-.01h.623a.472.472,0,0,1,.227.568c-.092.289-.341.291-.6.284-.011.148-.022.291-.032.437a.349.349,0,0,1-.428,0Zm.442.483c.1.04.174.05.193-.057a.262.262,0,0,0-.021-.092h-.16Z" transform="translate(-2276.167 -448.983)" fill="#fff"/>
        <path id="Path_8888" data-name="Path 8888" d="M2186.041,564.29l.277-.143.114.181c.107-.073.2-.137.162-.3l-.311-.021a.386.386,0,0,1-.155-.52.6.6,0,0,1,.712-.443c.114.066.114.171.091.308l-.255.146-.133-.143-.151.187h.448l.154.255c-.115.6-.336.892-.8.975C2186.019,564.6,2186.019,564.6,2186.041,564.29Z" transform="translate(-2181.58 -538.014)" fill="#fff"/>
        <path id="Path_8889" data-name="Path 8889" d="M2229.269,545.97l.206.327-.306.228L2229,546.4c-.265.147-.316.442-.142.767.238.048.182-.192.291-.3h.288a.648.648,0,0,1-.781.689.663.663,0,0,1-.255-.735,1.107,1.107,0,0,1,.313-.682.549.549,0,0,1,.559-.177Z" transform="translate(-2221.202 -522.027)" fill="#fff"/>
        <path id="Path_8890" data-name="Path 8890" d="M2344.774,567.875l-.262-.367a.5.5,0,0,1,.228-.4.8.8,0,0,1,.859.412c.04.528-.08.722-.551.868-.271-.114-.59-.177-.638-.56.133-.1.238.062.363.04-.017.177.114.195.239.236l.185-.121Zm.143-.244c.212.124.271.139.326.057a.211.211,0,0,0-.228-.317c-.133.045-.133.152-.114.26Z" transform="translate(-2329.741 -541.816)" fill="#fff"/>
        <path id="Path_8891" data-name="Path 8891" d="M2302.2,550.816c-.136-.114-.294-.209-.317-.44l.088-.266c.39-.238.669-.173,1,.228.08.481-.037.8-.471.929-.239-.073-.535-.081-.623-.455h.332c0,.148.114.153.228.19l.2-.188Zm.43-.481c-.091-.062-.185-.15-.3-.059a.178.178,0,0,0-.055.137c.011.151.149.142.215.184.156-.05.178-.14.132-.262Z" transform="translate(-2289.939 -525.791)" fill="#fff"/>
        <path id="Path_8892" data-name="Path 8892" d="M2250.413,469.186l-.255-.091a11.527,11.527,0,0,1-.434-1.279l.373-.019c.155.187.144.426.258.625l.249-.614h.358a.878.878,0,0,1-.022.182c-.114.332-.237.659-.367.984a1.07,1.07,0,0,1-.161.212Z" transform="translate(-2241.171 -448.917)" fill="#fff"/>
        <path id="Path_8893" data-name="Path 8893" d="M2269.019,467.957h.414a.645.645,0,0,1,.311.423l-.308.114a1.064,1.064,0,0,0-.1-.114c-.067-.058-.16-.052-.19.023a1.089,1.089,0,0,0-.046.309.192.192,0,0,0,.141.214l.171-.188c.107-.007.236-.041.341.114l-.177.354c-.089.033-.166.066-.247.09a.509.509,0,0,1-.518-.228.869.869,0,0,1,.207-1.111Z" transform="translate(-2258.911 -449.066)" fill="#fff"/>
        <path id="Path_8894" data-name="Path 8894" d="M2323.678,558.681l.369.156-.213.636.149.125-.08.179-.133-.031-.085.174c-.133.045-.227-.026-.341-.09l.059-.241-.505-.207a.22.22,0,0,1,.1-.3C2323.224,558.959,2323.439,558.826,2323.678,558.681Zm-.186.683.1-.355-.381.249Z" transform="translate(-2309.596 -533.935)" fill="#fff"/>
        <path id="Path_8895" data-name="Path 8895" d="M2201.967,558l.362-.15c.114.254-.045.486-.027.723a4.462,4.462,0,0,1-.059.735l-.311.161C2201.853,558.973,2202.046,558.5,2201.967,558Z" transform="translate(-2196.438 -533.161)" fill="#fff"/>
        <path id="Path_8896" data-name="Path 8896" d="M2290.357,549.437h-.369a3.166,3.166,0,0,1-.021-.569V548.3h.323c.113.177.051.375.062.562S2290.357,549.229,2290.357,549.437Z" transform="translate(-2278.814 -524.226)" fill="#fff"/>
        <path id="Path_8897" data-name="Path 8897" d="M2171.931,239.694a5.675,5.675,0,0,1,.292-2.058,6.754,6.754,0,0,1,3.5-4.094,6.535,6.535,0,0,1,3.39-.606,6.141,6.141,0,0,1,1.727.41,6.436,6.436,0,0,1,1.581.9,6.571,6.571,0,0,1,1.844,2.191,7.428,7.428,0,0,1,.743,2.161,6.482,6.482,0,0,1,.066,1.761,6.814,6.814,0,0,1-.758,2.616,6.924,6.924,0,0,1-1.229,1.674,6.422,6.422,0,0,1-1.729,1.261,5.429,5.429,0,0,1-1.784.569,8.487,8.487,0,0,1-1.011.114,6.316,6.316,0,0,1-3.692-1.137,7.512,7.512,0,0,1-.921-.743,6.331,6.331,0,0,1-1.156-1.527,7.289,7.289,0,0,1-.7-1.78,5.975,5.975,0,0,1-.17-1.706Zm2.444-4.072c.126-.008.175.107.26.165a.45.45,0,0,0,.1.033l.047-.167-.659-.569-.122.114.25.3c-.126.008-.18-.1-.266-.161-.013-.008-.035,0-.07,0l-.066.147c.15.137.286.256.416.381a.345.345,0,0,1,.049.121l-.048.038-.558-.413-.126.19c.294.137.47.465.864.4l.144-.3Zm-.062,5.876c.228.021.319-.124.4-.3a1.423,1.423,0,0,0-.859-.588,1.162,1.162,0,0,0,.455.893c-.114.048-.078.147-.051.215a1.084,1.084,0,0,0,.42.553c.342.023.412-.042.405-.382.114.058.2.2.4.179l.192-.175c-.029-.315.066-.6-.114-.863a1.01,1.01,0,0,0-.471.863,1.209,1.209,0,0,0-.707-.341c-.028,0-.05-.029-.073-.046Zm7.744-2.456c.215.035.277-.1.317-.278a1.328,1.328,0,0,0-.758-.675.993.993,0,0,0-.017.114,1.4,1.4,0,0,0,.332.775h-.251a2.633,2.633,0,0,0,.316.775l-.185-.048a1.5,1.5,0,0,0,.114.886l-.156-.072a1.647,1.647,0,0,0-.114.766l-.149-.054a1.615,1.615,0,0,0-.161.846l-.228-.324a1.727,1.727,0,0,0-.228,1.032,1.435,1.435,0,0,0-.4-.394c.039.386-.1.756.142,1.086l.227.031.165.3a1.167,1.167,0,0,0,.983-.293,2.419,2.419,0,0,0-.5-.173.93.93,0,0,0-.455-.013c-.037-.173-.066-.327-.1-.481a.363.363,0,0,0,.47-.228c-.022-.155-.053-.351-.083-.546.1.083.124.249.332.266l.217-.185-.092-.6v.006c.133,0,.282.057.381-.106a.823.823,0,0,0-.114-.6,1.166,1.166,0,0,1-.078-.2c.175.137.318.054.454-.066a.341.341,0,0,0,.088.3.309.309,0,0,0,.455-.1,4.443,4.443,0,0,0,.269-.536.477.477,0,0,0,0-.173,2.228,2.228,0,0,0-.826.521,1.1,1.1,0,0,0-.02-.183,1.378,1.378,0,0,0-.368-.6l.209.059a.315.315,0,0,0,.245-.287c-.062-.247-.29-.368-.449-.545Zm-5.939,3.555a1.893,1.893,0,0,0-.062-.759.88.88,0,0,0-.115-.177,2.242,2.242,0,0,1-.178.228.837.837,0,0,0-.185.531.3.3,0,0,0,.107.212.833.833,0,0,0,.227.107l.214-.147c-.02.1-.04.207-.061.309a.275.275,0,0,0,.113.306,1.4,1.4,0,0,0,.183.092.316.316,0,0,0,.271-.384,4.124,4.124,0,0,0-.123-.52,1.2,1.2,0,0,0-.094-.195Zm-1.024-3.878c-.044.042-.089.083-.133.127-.113.121-.236.24-.341.37a.214.214,0,0,0,0,.292.25.25,0,0,0,.27.049.651.651,0,0,0,.378-.277,1.481,1.481,0,0,0,.257-.632l-.433.076a1.3,1.3,0,0,0,.455-.708,1.071,1.071,0,0,0-.938.54l-.515-.7a1.157,1.157,0,0,0,.016,1.024c.341.06.4.038.5-.218.133.216.314.1.474.057Zm2.844,1.683h0a1.776,1.776,0,0,1-.133.129.95.95,0,0,0-.368.434l.114.174a1.136,1.136,0,0,0,.646-.606c.048.1.089.18.133.262v-.007c-.062.01-.139,0-.18.035a3.022,3.022,0,0,0-.349.332.216.216,0,0,0-.044.173c.014.05.083.084.133.133l.315-.171c-.177.279-.177.279.035.414l.242-.133.078.212a1.636,1.636,0,0,0,.266-.077c.167-.082.172-.114.084-.332v.006a2.455,2.455,0,0,0,.273.066c.114.016.213-.014.24-.149l-.121-.183h0c.121-.009.228.148.368.031a.236.236,0,0,0-.086-.3,2.259,2.259,0,0,1-.183-.181l-.188-.212c.3.073.357.415.67.4a.7.7,0,0,0-.022-.228,1.044,1.044,0,0,0-.184-.261,15.848,15.848,0,0,0-1.532-1.466,3.667,3.667,0,0,0-.471-.279.6.6,0,0,1,.181,0,1.21,1.21,0,0,1,.537.332c.416.418.837.834,1.251,1.251l.391.386a.407.407,0,0,0,.421-.163v-1.455c0-.086.011-.175-.114-.241h-.194c-.18.015-.358.033-.538.056a1.109,1.109,0,0,1-.886-.272,1.6,1.6,0,0,0-1.285-.371,1.849,1.849,0,0,0-.234.066c.091.147.163.26.235.375a3.686,3.686,0,0,0-.587.03v1.837a.645.645,0,0,0,.731.072.611.611,0,0,1,.349-.114Zm-.271,4.75a.332.332,0,0,0-.327.332,4.474,4.474,0,0,1-.094.514c.08.107.153.107.21.007a.44.44,0,0,0,.03-.155,1.821,1.821,0,0,1,.13-.473.137.137,0,0,1,.06.1c-.018.169-.044.341-.062.506a.6.6,0,0,0,.015.143.469.469,0,0,0,.083.016.284.284,0,0,0,.06-.014,1.965,1.965,0,0,0,.133-.71,1.2,1.2,0,0,0-.106-.274l.7-.539.746.593a.54.54,0,0,0,.052-.113c.031-.22-.113-.355-.251-.489l-.159-.15c.315-.062.6-.1.873-.179a2.512,2.512,0,0,0,.829-.317c.137-.1.137-.1.072-.332-.059.019-.115.037-.175.059-.114.046-.236.1-.354.145a10.848,10.848,0,0,1-1.293.327,1.135,1.135,0,0,1-.682-.054,11.582,11.582,0,0,1-1.545-.607c-.1-.049-.19-.106-.294-.009-.015.2.133.28.279.341.187.078.379.14.569.207.332.114.667.228.992.341-.164.172-.318.341-.474.5a.188.188,0,0,0-.082.137.186.186,0,0,0,.053.151Zm-1.66-6.741c-.024.045-.062.082-.062.114v2.124c0,.037.036.073.062.121a4,4,0,0,0,.692,0,17.545,17.545,0,0,0-.024-2.36Zm4.53-.008v2.312h.733a16.172,16.172,0,0,0-.019-2.312Zm-5.037,1.113a1.2,1.2,0,0,0-.958.682,1.561,1.561,0,0,0-.617-.48.678.678,0,0,0-.177-.015,2.135,2.135,0,0,0,.185.629c.072.114.159.227.286.227a.3.3,0,0,0,.332-.228.284.284,0,0,0,.418.066,1.138,1.138,0,0,0,.515-.88Zm-.375-2.626c-.169.18-.324.332-.465.491a.581.581,0,0,0-.19.607.439.439,0,0,0,.332.2,1.137,1.137,0,0,0,.316-1.3Zm7.583,1.351c.019-.266.02-.341-.067-.446a2.653,2.653,0,0,0-.544-.616.62.62,0,0,0-.083.465c.012.114.042.228.046.341a.493.493,0,0,0,.161.394.448.448,0,0,0,.472-.133Zm-7.165,1.933c-.126.074-.2.114-.265.161a1.3,1.3,0,0,0-.474.592.294.294,0,0,0,.028.332c.073.08.216.066.353-.027a.265.265,0,0,0,.074-.06,1.481,1.481,0,0,0,.274-1Zm4.409-1.8a.388.388,0,0,0-.4-.3,5.31,5.31,0,0,0-.683.114c-.035.007-.066.041-.1.062a.859.859,0,0,0,.7.4.5.5,0,0,0,.464-.282Zm2.921.787a1.246,1.246,0,0,0,.244-.985.776.776,0,0,0-.188.1c-.19.183-.421.341-.465.653l.126.228Zm-8.308,3.259a1.063,1.063,0,0,0,.753.614,1.5,1.5,0,0,0,.137-.114.255.255,0,0,0-.1-.455,1.384,1.384,0,0,0-.807-.043Zm-.047-2.93c-.073-.228-.088-.287-.2-.351-.177-.1-.314-.284-.577-.293a1,1,0,0,0,.443.9.447.447,0,0,0,.324-.254Zm6.739-5.573-.332.612-.075-.029c-.013-.246.228-.429.228-.683l-.165-.075c-.057.133-.114.257-.163.382l-.172.437.332.217c.355-.159.379-.493.518-.769Zm1.925,7.118a1.533,1.533,0,0,0-.91.351c-.017.137-.061.282.114.359a.332.332,0,0,0,.4-.083,1.335,1.335,0,0,0,.388-.623Zm-1.252,1.119c.008.114.014.21.022.314l.285.133a1.714,1.714,0,0,0,.708-.649,1.535,1.535,0,0,0-1.023.2Zm1.2-3.007a1.048,1.048,0,0,0-.37.368,1.89,1.89,0,0,0-.181.332.221.221,0,0,0,.1.278.327.327,0,0,0,.327-.056.405.405,0,0,0,.1-.163,5.3,5.3,0,0,0,.113-.589c0-.046-.055-.1-.09-.166Zm-.581,3.619c-.073-.046-.123-.1-.175-.1a4.076,4.076,0,0,0-.568-.007.315.315,0,0,0-.309.185c-.051.145.039.241.151.319a.213.213,0,0,0,.06.019c.353.04.568-.2.842-.41Zm-.7,2.441.157-.148-.378-.585.1-.08.443.586.152-.148c-.133-.187-.255-.362-.386-.528a.246.246,0,0,0-.367-.053.36.36,0,0,0-.161.285Zm-8.332-3.268a2.412,2.412,0,0,0-.71.332l.067.127c.265,0,.448-.246.77-.163l-.683.366.114.2c.26-.188.6-.215.73-.536a.475.475,0,0,0-.3-.332Zm1.574,1.258a.947.947,0,0,0,.877.426.811.811,0,0,0,.124-.137.243.243,0,0,0-.161-.374,1.433,1.433,0,0,0-.851.086Zm5.129,2.686c-.164-.239-.094-.569-.317-.765a.438.438,0,0,0-.432.165,3.565,3.565,0,0,0,.163.8l.155-.014a1.219,1.219,0,0,0-.087-.569c-.015-.085-.017-.142.089-.176.14.208.078.5.266.711Zm3.681-2.865-.378-.247c-.114-.073-.228-.14-.342-.209a1.707,1.707,0,0,0-.146.114c-.195.2-.182.324.048.493q.219.159.44.314c.013.009.04,0,.073,0l.07-.15-.581-.443.1-.1.587.4Zm-1.933-7.724c.088-.114.163-.2.228-.3s.129-.191.2-.3l-.133-.114c-.212.145-.249.431-.535.522.058-.271.265-.418.348-.647l-.114-.133a3.18,3.18,0,0,0-.489.713l.15.252Zm-8.3,1.874a.63.63,0,0,0,.133-.06.295.295,0,0,0,.084-.418,1.261,1.261,0,0,0-.691-.341c-.027.164-.03.171.044.212.133.073.265.133.4.207a1.326,1.326,0,0,1,.156.133,2.735,2.735,0,0,1-.744-.228l-.083.179Zm9.987,3.672c.07.1.106.215.179.246a1.18,1.18,0,0,0,.73.137.572.572,0,0,0,.011-.114c0-.018-.018-.035-.028-.053-.217-.081-.478-.048-.683-.266a3.754,3.754,0,0,1,.714.086c.081-.062.1-.133.035-.21l-.736-.133Zm0-2.225a1.859,1.859,0,0,0,.151.266.228.228,0,0,0,.157.09,1.426,1.426,0,0,0,.694-.169l-.032-.158c-.217.036-.421.075-.627.1-.033,0-.073-.037-.132-.066.241-.158.531-.088.73-.273l-.042-.149c-.228.052-.44.09-.648.158a.929.929,0,0,0-.259.2Zm-4.941,6.614c-.241.124-.332.22-.32.381.013.2.053.392.082.6l.171-.03v-.624a.721.721,0,0,1,.072-.183c.1.313-.018.6.17.829.177-.044.146-.184.136-.306-.014-.158-.041-.314-.066-.471a.364.364,0,0,0-.035-.076Zm-.97-11.116c-.139-.27-.073-.549-.25-.772l-.143.114c.121.266.027.6.3.821l.285-.024.114-.228-.129-.724-.175.011c-.061.266.144.506-.015.8Zm3.2,11.556c-.035-.24-.21-.434-.218-.716.273.143.228.455.418.619l.158-.05a2.607,2.607,0,0,0-.332-.7c-.036-.054-.114-.078-.19-.125l-.26.228a1.408,1.408,0,0,0,.284.813Zm-6.02-10.313-.5-.528-.113.156.479.554c.26.066.342-.1.442-.244a1.626,1.626,0,0,0-.551-.708l-.114.142c.094.1.178.183.252.274s.129.185.19.274Zm.587,10.1c.114-.177.2-.309.276-.448q.086-.162.156-.332a.475.475,0,0,0-.375-.29,1.772,1.772,0,0,0-.5.72l.156.082c.114-.172.218-.332.332-.485.027-.036.1-.038.192-.073l-.369.669Zm-2.257-4.266-.284.1c-.14.048-.281.094-.42.145-.014,0-.018.034-.054.107l.1.086c.683-.2.683-.2.8-.43a1.25,1.25,0,0,0-.041-.163.22.22,0,0,0-.242-.161,1.906,1.906,0,0,0-.673.2l.036.14c.241.072.455-.212.764-.023Zm1.933-6.883c.235.2.241.553.552.659a.541.541,0,0,0,.341-.3c-.094-.187-.188-.388-.293-.582-.052-.1-.133-.133-.241-.029.056.113.115.228.167.341.1.2.1.2.043.357a.581.581,0,0,1-.062-.074c-.1-.161-.2-.324-.3-.485-.014-.022-.05-.029-.085-.046Zm8.984,2.8c-.158.066-.315.127-.465.2-.37.18-.391.332-.078.6a.163.163,0,0,0,.058.019,2.289,2.289,0,0,0,.722-.315l-.115-.133c-.187.066-.365.133-.546.189-.035.011-.083-.018-.125-.029v-.056l.646-.3Zm-4.406-3.679c-.032.14-.062.273-.094.4a.641.641,0,0,0-.042.4c.166.161.166.161.428.133a1.833,1.833,0,0,0,.266-.8l-.175-.074a1.83,1.83,0,0,1-.115.357c-.062.107.026.3-.2.332-.057-.266.188-.5.072-.767Zm-6.383,4.7a1.141,1.141,0,0,0,.1-.2.276.276,0,0,0-.145-.323,3.048,3.048,0,0,0-.664-.185c-.019.2-.014.215.114.252s.265.073.4.114c.041.014.072.057.133.114-.28.082-.484-.114-.724-.092l-.113.169a2.275,2.275,0,0,0,.9.153Zm8.871,5.706c.185.183.292.428.537.569l.114-.133c-.133-.216-.361-.325-.465-.58.332.007.386.332.6.455l.128-.137a1.8,1.8,0,0,0-.639-.586c-.247.161-.247.161-.281.416Zm-7.938-.487a.358.358,0,0,0-.319-.455c-.176.126-.359.254-.534.389-.083.066-.067.114.066.216.142-.1.284-.216.436-.313.036-.023.1,0,.207,0l-.548.465.084.2Zm9.978-1.278.087-.2c-.228-.089-.415-.177-.615-.244a.258.258,0,0,0-.349.228,1.156,1.156,0,0,0,0,.184,1.765,1.765,0,0,0,.753.378c.014-.078.025-.125.035-.18-.114-.058-.221-.106-.321-.165s-.255-.056-.261-.266Zm-7.635-7.734-.317-.7-.168.145a3.953,3.953,0,0,0,.386.739,1.373,1.373,0,0,0,.253-.066.284.284,0,0,0,.123-.133.251.251,0,0,0,.023-.182,1.952,1.952,0,0,0-.284-.606l-.153.033c.209.643.209.643.133.772Zm6.315,2.161c-.009.319,0,.332.323.455.166-.113.341-.228.519-.341.085-.06.089-.137,0-.217-.228.059-.388.284-.7.319a1.149,1.149,0,0,1,.142-.176c.114-.09.249-.164.365-.258.086-.072.074-.1-.06-.228Zm-.114-1.354-.531.506a.633.633,0,0,0-.01.121c.035.291.227.382.455.208a5.719,5.719,0,0,0,.429-.378c.012-.011.012-.038.024-.075l-.12-.114c-.214.133-.332.357-.587.477.019-.1.011-.169.043-.2.113-.114.237-.21.354-.319.073-.07.062-.114-.075-.228Zm-6.58,10.622c.053-.127.094-.236.144-.341s.044-.252.179-.325c.1.137,0,.249-.026.362s-.07.234-.107.354l.142.074a2.112,2.112,0,0,0,.272-.753c-.051-.234-.206-.262-.415-.217-.22.179-.228.473-.367.716Zm2.39-11.572a1.845,1.845,0,0,0,.2.008.235.235,0,0,0,.228-.194c.04-.228.055-.455.079-.689a.828.828,0,0,0-.12-.024.163.163,0,0,0-.056.022c-.1.216-.054.465-.164.682a.229.229,0,0,1-.054-.137v-.455a.141.141,0,0,0-.034-.115.144.144,0,0,0-.109-.049.823.823,0,0,0-.059.193,1.75,1.75,0,0,1-.018.383.348.348,0,0,0,.1.376Zm-5.644,5.849-.007.078-.715.114c.035.084.062.153.078.191a2.621,2.621,0,0,0,.454-.038c.156-.041.359-.044.394-.266.032-.2-.114-.28-.261-.382-.206.142-.481-.01-.689.145a.15.15,0,0,0,.056.1.147.147,0,0,0,.113.03c.15,0,.3-.009.455-.007a.581.581,0,0,1,.114.029Zm1.156,4.322.1.081c.239-.114.287-.394.512-.495.021.03.043.048.041.062-.042.252-.331.351-.376.617l.149.1c.145-.281.489-.431.434-.8a.3.3,0,0,0-.383-.165,1.7,1.7,0,0,0-.478.594Zm-1.874-5.142h.837a.455.455,0,0,0,.056-.432.989.989,0,0,0-.877-.086.168.168,0,0,0,.177.145,1.545,1.545,0,0,1,.32.013c.078.017.2.007.206.153h-.657Zm11.648.837h.753v-.189h-.393c-.126,0-.266.05-.309-.164l.717-.032c-.011-.08-.016-.129-.024-.182h-.715c-.248.228-.248.242-.043.569Zm-10.091,3.983.177.114c.1-.114.2-.217.29-.322s.22-.175.271-.332l-.089-.114Zm1.9,1.5.133.08a3.019,3.019,0,0,0,.349-.886c-.133-.062-.194,0-.236.114-.089.228-.168.445-.26.7Zm1.292-.569a2.781,2.781,0,0,0-.129,1.024c.05-.01.095,0,.1-.023.166-.257.094-.569.208-.846Zm1.2.24-.2.043c.026.319-.021.627.032.946l.165-.035Zm-1.869-10.586a3.711,3.711,0,0,0-.423-.85l-.143.114.418.838Zm8.317,4.407c-.177.022-.323.035-.468.058s-.284.054-.439.083c.02.078.032.126.05.2.293-.1.6-.037.874-.181Zm-4.6,5.964a6.984,6.984,0,0,0,.341.91l.146-.137-.307-.811Zm.384-11.381-.265.887h.228c0-.311.228-.569.19-.887Zm-7.12,4.812c-.037-.034-.066-.082-.1-.088-.217-.037-.435-.066-.654-.091a.334.334,0,0,0-.152.026c-.025.009-.038.048-.077.1a5.985,5.985,0,0,0,.886.177c.006,0,.017-.01.04-.025Zm.531,4.067-.747.505.1.163.779-.513Zm10.531-4.638c-.243.074-.477.137-.7.22-.106.038-.142.124-.055.241l.882-.3Zm-12.026,3,.9-.174-.033-.175a3.032,3.032,0,0,0-.879.165,1.723,1.723,0,0,0-.006.191Zm11.076,2.826a3.989,3.989,0,0,0-.744-.581l-.1.148.712.569Zm-.9-8.871c-.181.218-.342.414-.5.612a.69.69,0,0,0-.066.139c.172.053.177.057.252-.038.146-.182.286-.368.427-.554a.177.177,0,0,0,.013-.062Zm-5.607-1.394a3.818,3.818,0,0,0,.238.91l.174-.049c-.08-.3-.155-.58-.228-.863Zm5.095,10.423-.133.177c.228.2.342.483.608.645l.109-.114Zm-9.311-6.691c.053.054.081.106.123.121.237.092.475.175.714.26a.207.207,0,0,0,.044-.024l.066-.133a3.512,3.512,0,0,0-.813-.287c-.045,0-.078.038-.147.066Zm.7,4.372a5.127,5.127,0,0,0-.824.341l.114.133.827-.3Zm1.442,3.456a3.485,3.485,0,0,0,.5-.8l-.172-.057-.455.735Zm9.152-8.232a4.2,4.2,0,0,0-.8.432l.085.172.767-.436Zm-4.608-2.47c.046-.317.086-.6.133-.91h-.192c-.047.292-.091.579-.138.878Zm5.3,6.188c-.022-.106-.032-.153-.04-.2a2.546,2.546,0,0,0-.869-.051v.161Zm-11.4-4.329.771.465.114-.167-.747-.455Zm11.186,5.423a1.992,1.992,0,0,0-.886-.332v.187c.228.066.465.145.7.2.042.019.121-.03.177-.049Zm-5.431,3.672c.062.322.113.609.174.91l.191-.024c-.056-.307-.114-.594-.16-.882Zm2.263-10.254.417-.756-.163-.114a8.68,8.68,0,0,0-.44.848Zm2.729,7.64-.762-.422-.1.177a5.084,5.084,0,0,0,.842.41Zm-10.85-3.1c-.039-.035-.066-.088-.1-.088-.246-.007-.491-.01-.735,0-.08,0-.137.058-.114.173a4.15,4.15,0,0,0,.85.007c.024,0,.047-.05.081-.086Zm7.847,5.052c.219.523.332.7.5.783.037-.133.04-.133.009-.2-.114-.216-.22-.432-.341-.664Zm-2.868-11.274v.9l.185-.008c0-.169.006-.316,0-.465a.993.993,0,0,0-.037-.439Zm5.164,2.42a3.735,3.735,0,0,0-.7.632l.121.114.7-.6Zm-7.912-.495.1-.133a4.955,4.955,0,0,0-.568-.7l-.106.133a4.468,4.468,0,0,0,.568.713Z" transform="translate(-2168.377 -229.188)" fill="#251e1e"/>
        <path id="Path_8898" data-name="Path 8898" d="M2413.849,308.649l-.1-.332.266-.094c.081.017.145.18.126.3S2414.091,308.649,2413.849,308.649Z" transform="translate(-2394.609 -299.643)"/>
        <path id="Path_8899" data-name="Path 8899" d="M2167.146,236.979l-.316.332-.312-.542Z" transform="translate(-2163.325 -232.802)"/>
        <path id="Path_8900" data-name="Path 8900" d="M2400.069,387.052l.431.368a3.382,3.382,0,0,1-.587.009Z" transform="translate(-2381.663 -373.383)"/>
        <path id="Path_8901" data-name="Path 8901" d="M2142.449,387.556l-.577.072.394-.428Z" transform="translate(-2140.277 -373.52)"/>
        <path id="Path_8902" data-name="Path 8902" d="M2313.73,190.893c.029-.114.057-.212.084-.314a.407.407,0,0,1,.383.228l-.172.206Z" transform="translate(-2301.041 -189.592)"/>
        <path id="Path_8903" data-name="Path 8903" d="M2232.832,190.63l-.1-.364a1.461,1.461,0,0,1,.295-.077.186.186,0,0,1,.146.091.179.179,0,0,1-.027.169,2.217,2.217,0,0,1-.317.182Z" transform="translate(-2225.274 -189.225)"/>
        <path id="Path_8904" data-name="Path 8904" d="M2293.97,473.362l.011-.149h.161a.273.273,0,0,1,.02.092C2294.152,473.412,2294.073,473.4,2293.97,473.362Z" transform="translate(-2282.559 -453.984)"/>
        <path id="Path_8905" data-name="Path 8905" d="M2352.012,571.354c-.021-.108-.031-.215.1-.262a.212.212,0,0,1,.227.317C2352.284,571.494,2352.228,571.478,2352.012,571.354Z" transform="translate(-2336.844 -545.54)"/>
        <path id="Path_8906" data-name="Path 8906" d="M2349.97,578.976l.427.114-.185.121c-.114-.043-.255-.062-.238-.236Z" transform="translate(-2334.946 -552.918)"/>
        <path id="Path_8907" data-name="Path 8907" d="M2308.464,554.132c.041.121.023.212-.14.266-.067-.043-.2-.033-.216-.184a.178.178,0,0,1,.054-.137C2308.271,553.984,2308.362,554.071,2308.464,554.132Z" transform="translate(-2295.772 -529.589)"/>
        <path id="Path_8908" data-name="Path 8908" d="M2306.991,562.987h.423l-.2.188c-.105-.036-.228-.042-.228-.19Z" transform="translate(-2294.73 -537.961)"/>
        <path id="Path_8909" data-name="Path 8909" d="M2328.393,564.131l-.277-.105.381-.249Z" transform="translate(-2314.498 -538.702)"/>
        <path id="Path_8910" data-name="Path 8910" d="M2250.258,316.967c.088.216.083.249-.085.332a1.585,1.585,0,0,1-.266.077l-.078-.212-.242.133c-.213-.133-.213-.133-.034-.414l-.315.171c-.05-.046-.115-.081-.133-.133a.217.217,0,0,1,.043-.173,3.05,3.05,0,0,1,.348-.332c.042-.034.121-.025.182-.035l.042.029-.048-.022-.133-.262a1.137,1.137,0,0,1-.646.606l-.114-.174a.95.95,0,0,1,.368-.434,1.755,1.755,0,0,0,.133-.129h.071l.044.031-.05-.024-.029-.046-.029.046a.611.611,0,0,0-.358.114.646.646,0,0,1-.73-.072v-1.837a3.682,3.682,0,0,1,.587-.03l-.235-.375a1.838,1.838,0,0,1,.234-.066,1.6,1.6,0,0,1,1.284.37,1.11,1.11,0,0,0,.885.272c.179-.022.359-.04.539-.056a1.847,1.847,0,0,1,.195,0,.228.228,0,0,1,.114.241v1.455a.41.41,0,0,1-.423.163l-.391-.387c-.42-.416-.841-.83-1.251-1.251a1.219,1.219,0,0,0-.538-.332.6.6,0,0,0-.181,0,3.792,3.792,0,0,1,.471.279,15.911,15.911,0,0,1,1.531,1.466,1.066,1.066,0,0,1,.183.262.7.7,0,0,1,.022.228c-.312.017-.368-.325-.67-.4.088.1.133.158.188.212a2.151,2.151,0,0,0,.183.181.236.236,0,0,1,.086.3c-.142.114-.247-.04-.368-.03l-.067-.066a.36.36,0,0,0-.244-.207c.056.1.114.206.245.206l.067.066.121.183a.187.187,0,0,1-.24.149,2.381,2.381,0,0,1-.274-.066l-.066-.066c-.077-.066-.077-.066-.115.038l.115-.042Zm-.521-.26.213-.082-.114-.1-.089.184-.031.04Z" transform="translate(-2239.739 -304.789)" fill="#fff"/>
        <path id="Path_8911" data-name="Path 8911" d="M2241.333,397.608a.188.188,0,0,1,.021-.284c.156-.163.311-.327.474-.5l-.992-.341c-.19-.066-.384-.129-.568-.207-.148-.062-.295-.139-.281-.341.106-.1.2-.04.3.009a11.621,11.621,0,0,0,1.544.608,1.14,1.14,0,0,0,.683.054,10.932,10.932,0,0,0,1.293-.327l.354-.145c.057-.023.113-.04.175-.059.066.236.066.236-.073.332a2.506,2.506,0,0,1-.828.317c-.276.075-.56.114-.874.179l.159.15c.141.133.283.266.251.489a.569.569,0,0,1-.053.113l-.746-.593-.7.539a1.12,1.12,0,0,1,.106.274,1.97,1.97,0,0,1-.132.709.265.265,0,0,1-.061.014.483.483,0,0,1-.083-.016.659.659,0,0,1-.016-.143c.019-.169.044-.341.062-.506a.142.142,0,0,0-.061-.1,1.814,1.814,0,0,0-.133.473.472.472,0,0,1-.031.155c-.058.1-.133.1-.21-.007a4.318,4.318,0,0,0,.094-.514A.332.332,0,0,1,2241.333,397.608Z" transform="translate(-2232.051 -381.637)" fill="#fff"/>
        <path id="Path_8912" data-name="Path 8912" d="M2234.157,318.2h.669a17.307,17.307,0,0,1,.023,2.36,3.976,3.976,0,0,1-.69,0c-.025-.048-.062-.084-.062-.121v-2.124C2234.089,318.285,2234.134,318.249,2234.157,318.2Z" transform="translate(-2226.54 -308.98)" fill="#fff"/>
        <path id="Path_8913" data-name="Path 8913" d="M2305.26,318.075h.719a15.926,15.926,0,0,1,.021,2.312h-.739Z" transform="translate(-2293.115 -308.858)" fill="#fff"/>
        <path id="Path_8914" data-name="Path 8914" d="M2201.813,335.321a1.144,1.144,0,0,1-.531.885.284.284,0,0,1-.418-.066.3.3,0,0,1-.333.228c-.127,0-.214-.113-.286-.228a2.133,2.133,0,0,1-.185-.629.685.685,0,0,1,.178.015,1.554,1.554,0,0,1,.616.48,1.2,1.2,0,0,1,.959-.687Z" transform="translate(-2194.701 -324.99)" fill="#fff"/>
        <path id="Path_8915" data-name="Path 8915" d="M2318.52,351.061a1.232,1.232,0,0,0,.078.2.825.825,0,0,1,.115.6c-.1.163-.25.1-.383.106l-.043-.034.048.027c.03.195.061.388.092.6l-.217.185c-.209-.014-.235-.179-.332-.266v.006a1.612,1.612,0,0,1,.16-.846l.148.054a1.647,1.647,0,0,1,.113-.766l.156.072h0l.071.07Zm-.3.744.016.015V351.8Z" transform="translate(-2304.905 -339.593)" fill="#fff"/>
        <path id="Path_8916" data-name="Path 8916" d="M2204.925,310.485c-.169.046-.341.159-.485-.056-.1.256-.154.279-.5.218a1.159,1.159,0,0,1-.015-1.024l.513.7a1.072,1.072,0,0,1,.938-.54,1.3,1.3,0,0,1-.455.708Z" transform="translate(-2198.214 -300.953)" fill="#fff"/>
        <path id="Path_8917" data-name="Path 8917" d="M2305.236,380.391l.1.481a.935.935,0,0,1,.455.013,2.42,2.42,0,0,1,.5.173,1.168,1.168,0,0,1-.984.293l-.166-.3-.221-.03c-.243-.332-.1-.7-.142-1.086a1.443,1.443,0,0,1,.4.392h0l.067.066Z" transform="translate(-2292.662 -366.728)" fill="#fff"/>
        <path id="Path_8918" data-name="Path 8918" d="M2211.492,294.629a1.137,1.137,0,0,1-.319,1.3.44.44,0,0,1-.332-.2.582.582,0,0,1,.191-.608C2211.174,294.958,2211.322,294.809,2211.492,294.629Z" transform="translate(-2204.76 -286.926)" fill="#fff"/>
        <path id="Path_8919" data-name="Path 8919" d="M2328.706,300.173a.447.447,0,0,1-.485.141.5.5,0,0,1-.162-.394c0-.114-.034-.228-.046-.341a.62.62,0,0,1,.082-.465,2.666,2.666,0,0,1,.544.616C2328.73,299.835,2328.73,299.907,2328.706,300.173Z" transform="translate(-2314.394 -291.117)" fill="#fff"/>
        <path id="Path_8920" data-name="Path 8920" d="M2216.574,345.562a1.476,1.476,0,0,1-.287,1,.269.269,0,0,1-.073.06c-.137.092-.281.105-.354.026a.294.294,0,0,1-.027-.332,1.3,1.3,0,0,1,.473-.591C2216.38,345.674,2216.449,345.636,2216.574,345.562Z" transform="translate(-2209.428 -334.571)" fill="#fff"/>
        <path id="Path_8921" data-name="Path 8921" d="M2213.326,321.929l.433-.076a1.461,1.461,0,0,1-.258.632.648.648,0,0,1-.378.277.251.251,0,0,1-.266-.049.216.216,0,0,1,0-.292c.106-.133.228-.248.341-.37.042-.044.088-.085.133-.127Z" transform="translate(-2206.624 -312.393)" fill="#fff"/>
        <path id="Path_8922" data-name="Path 8922" d="M2279.023,313.412a.5.5,0,0,1-.483.281.857.857,0,0,1-.7-.4c.033-.022.062-.057.1-.062a5.3,5.3,0,0,1,.682-.114A.387.387,0,0,1,2279.023,313.412Z" transform="translate(-2267.469 -304.218)" fill="#fff"/>
        <path id="Path_8923" data-name="Path 8923" d="M2236.037,377.288l.3-.4a1.316,1.316,0,0,1,.093.194,4.168,4.168,0,0,1,.122.52.316.316,0,0,1-.27.384,1.346,1.346,0,0,1-.182-.092.275.275,0,0,1-.114-.306c.021-.1.041-.206.06-.309Z" transform="translate(-2228.303 -363.877)" fill="#fff"/>
        <path id="Path_8924" data-name="Path 8924" d="M2220.979,359.528a1.012,1.012,0,0,1,.472-.863c.179.266.088.548.113.863l-.192.175c-.2.017-.279-.121-.4-.179Z" transform="translate(-2214.276 -346.83)" fill="#fff"/>
        <path id="Path_8925" data-name="Path 8925" d="M2325,339.2a1.5,1.5,0,0,1-.114-.886l.185.048-.007-.006.072.072-.007-.006a1.368,1.368,0,0,1,.367.6c.009.06.012.122.02.183v-.007c-.138.114-.282.2-.455.066v.006l-.07-.07Z" transform="translate(-2311.446 -327.788)" fill="#fff"/>
        <path id="Path_8926" data-name="Path 8926" d="M2335.521,315.634h-.284l-.126-.228c.045-.315.276-.47.464-.653a.808.808,0,0,1,.189-.1,1.242,1.242,0,0,1-.243.979Z" transform="translate(-2321.039 -305.653)" fill="#fff"/>
        <path id="Path_8927" data-name="Path 8927" d="M2323.479,327.735a2.578,2.578,0,0,1-.317-.775h.245l.132.066h0c.159.174.381.3.455.544a.316.316,0,0,1-.245.287l-.21-.059.007.006-.071-.072Z" transform="translate(-2309.858 -317.164)" fill="#fff"/>
        <path id="Path_8928" data-name="Path 8928" d="M2202.355,353.06a1.162,1.162,0,0,1-.455-.893,1.417,1.417,0,0,1,.858.588c-.081.181-.177.324-.4.3Z" transform="translate(-2196.418 -340.75)" fill="#fff"/>
        <path id="Path_8929" data-name="Path 8929" d="M2229.047,369.493l-.214.147a.816.816,0,0,1-.228-.114.3.3,0,0,1-.107-.212.838.838,0,0,1,.184-.531,2.323,2.323,0,0,0,.179-.227.861.861,0,0,1,.114.177,1.911,1.911,0,0,1,.067.759Z" transform="translate(-2221.298 -356.09)" fill="#fff"/>
        <path id="Path_8930" data-name="Path 8930" d="M2212.72,379.832a1.384,1.384,0,0,1,.8.043.255.255,0,0,1,.1.455,1.537,1.537,0,0,1-.136.114A1.064,1.064,0,0,1,2212.72,379.832Z" transform="translate(-2206.553 -366.595)" fill="#fff"/>
        <path id="Path_8931" data-name="Path 8931" d="M2200.7,325.606a.445.445,0,0,1-.341.257,1,1,0,0,1-.445-.9c.266.011.4.2.578.293C2200.616,325.319,2200.627,325.374,2200.7,325.606Z" transform="translate(-2194.574 -315.3)" fill="#fff"/>
        <path id="Path_8932" data-name="Path 8932" d="M2310.981,371.066a1.734,1.734,0,0,1,.227-1.032l.227.324v-.006c.031.2.061.391.084.546a.366.366,0,0,1-.471.228h.008l-.07-.066Z" transform="translate(-2298.459 -357.464)" fill="#fff"/>
        <path id="Path_8933" data-name="Path 8933" d="M2322.211,314.107a1.4,1.4,0,0,1-.332-.775,1.048,1.048,0,0,1,.017-.114,1.329,1.329,0,0,1,.758.674c-.04.174-.1.313-.318.278h0l-.133-.066Z" transform="translate(-2308.662 -304.309)" fill="#fff"/>
        <path id="Path_8934" data-name="Path 8934" d="M2306.464,246.2l.164.1c-.139.276-.163.609-.518.769l-.332-.217c.066-.163.113-.3.172-.437s.105-.25.162-.382l.166.075c0,.247-.234.43-.228.682l.075.029Z" transform="translate(-2293.592 -241.468)" fill="#fff"/>
        <path id="Path_8935" data-name="Path 8935" d="M2208.632,366.377c0,.341-.066.4-.4.381a1.083,1.083,0,0,1-.42-.553c-.027-.066-.062-.167.052-.215h0c.023.018.045.049.067.052a1.21,1.21,0,0,1,.708.341Z" transform="translate(-2201.924 -353.682)" fill="#fff"/>
        <path id="Path_8936" data-name="Path 8936" d="M2332.793,358.917a1.336,1.336,0,0,1-.4.625.332.332,0,0,1-.4.083c-.17-.076-.126-.228-.114-.358a1.534,1.534,0,0,1,.91-.351Z" transform="translate(-2318.002 -347.064)" fill="#fff"/>
        <path id="Path_8937" data-name="Path 8937" d="M2326.871,373.185a1.535,1.535,0,0,1,1.013-.2,1.711,1.711,0,0,1-.707.649l-.285-.133a3,3,0,0,0-.021-.314Z" transform="translate(-2313.336 -360.214)" fill="#fff"/>
        <path id="Path_8938" data-name="Path 8938" d="M2337.3,329.669c.035.066.092.123.086.171-.027.2-.07.394-.114.589a.4.4,0,0,1-.093.161.327.327,0,0,1-.328.057.221.221,0,0,1-.1-.278,1.966,1.966,0,0,1,.182-.332A1.037,1.037,0,0,1,2337.3,329.669Z" transform="translate(-2322.559 -319.704)" fill="#fff"/>
        <path id="Path_8939" data-name="Path 8939" d="M2320.97,384.014c-.265.214-.488.455-.847.412a.214.214,0,0,1-.06-.019c-.113-.078-.2-.173-.151-.319a.314.314,0,0,1,.309-.185,4.059,4.059,0,0,1,.568.007C2320.845,383.915,2320.892,383.97,2320.97,384.014Z" transform="translate(-2306.807 -370.431)" fill="#fff"/>
        <path id="Path_8940" data-name="Path 8940" d="M2334.95,344.5a2.23,2.23,0,0,1,.826-.521.477.477,0,0,1,0,.173,4.5,4.5,0,0,1-.271.536.309.309,0,0,1-.455.106.343.343,0,0,1-.087-.3Z" transform="translate(-2320.891 -333.09)" fill="#fff"/>
        <path id="Path_8941" data-name="Path 8941" d="M2319.283,408.869l-.443-.668a.363.363,0,0,1,.161-.285c.153-.088.258-.083.366.053.133.166.25.341.386.528l-.152.148-.445-.586-.1.08.379.584Z" transform="translate(-2305.823 -392.844)" fill="#fff"/>
        <path id="Path_8942" data-name="Path 8942" d="M2186.337,372.9a.478.478,0,0,1,.283.332c-.125.321-.47.348-.73.536l-.115-.2.682-.367c-.322-.083-.5.167-.77.163l-.066-.127a2.4,2.4,0,0,1,.714-.332Z" transform="translate(-2181.21 -360.146)" fill="#fff"/>
        <path id="Path_8943" data-name="Path 8943" d="M2221,390.814a1.436,1.436,0,0,1,.842-.085.243.243,0,0,1,.162.374.766.766,0,0,1-.125.137.949.949,0,0,1-.879-.426Z" transform="translate(-2214.293 -376.805)" fill="#fff"/>
        <path id="Path_8944" data-name="Path 8944" d="M2289.611,422.764l-.163.143c-.186-.215-.126-.5-.266-.711-.106.033-.1.09-.088.177a1.222,1.222,0,0,1,.085.569l-.155.014a3.622,3.622,0,0,1-.164-.8.437.437,0,0,1,.432-.165C2289.521,422.2,2289.44,422.527,2289.611,422.764Z" transform="translate(-2277.772 -406.065)" fill="#fff"/>
        <path id="Path_8945" data-name="Path 8945" d="M2342.889,383.024l-.14.166-.587-.4-.1.1.581.444-.07.15c-.033,0-.059.014-.072,0q-.229-.153-.44-.314c-.227-.169-.243-.292-.047-.493a1.319,1.319,0,0,1,.146-.113c.115.07.228.137.341.209S2342.742,382.926,2342.889,383.024Z" transform="translate(-2327.375 -369.189)" fill="#fff"/>
        <path id="Path_8946" data-name="Path 8946" d="M2198.448,270.78l.215.271-.144.3c-.4.072-.568-.257-.863-.4l.125-.19.559.413.048-.038c-.016-.041-.021-.094-.049-.121-.133-.126-.265-.244-.414-.381l.066-.147c.035,0,.058-.007.071,0,.088.056.141.169.266.161l-.007-.007.072.072-.008-.007.072.072Z" transform="translate(-2192.449 -264.346)" fill="#fff"/>
        <path id="Path_8947" data-name="Path 8947" d="M2320.44,255.977h-.341l-.15-.252a3.222,3.222,0,0,1,.489-.712l.114.133c-.083.228-.292.376-.348.647.285-.091.323-.378.531-.522l.133.114c-.072.107-.133.2-.2.3S2320.531,255.868,2320.44,255.977Z" transform="translate(-2306.857 -249.867)" fill="#fff"/>
        <path id="Path_8948" data-name="Path 8948" d="M2188.666,287.1l-.706-.314.083-.179a2.732,2.732,0,0,0,.746.228,1.367,1.367,0,0,0-.156-.133c-.133-.072-.266-.133-.4-.207-.073-.041-.07-.048-.046-.212a1.261,1.261,0,0,1,.692.341.3.3,0,0,1-.084.418.663.663,0,0,1-.133.057Z" transform="translate(-2183.382 -279.113)" fill="#fff"/>
        <path id="Path_8949" data-name="Path 8949" d="M2353.64,351.467l.228-.3.736.133c.066.078.044.149-.037.21a3.751,3.751,0,0,0-.714-.085c.208.217.469.184.683.266a.168.168,0,0,1,.028.054.553.553,0,0,1-.01.113,1.176,1.176,0,0,1-.73-.137C2353.742,351.682,2353.708,351.567,2353.64,351.467Z" transform="translate(-2338.371 -339.809)" fill="#fff"/>
        <path id="Path_8950" data-name="Path 8950" d="M2353.62,316.2c.094-.078.161-.172.249-.2.207-.066.424-.106.647-.158.019.062.028.1.042.149-.2.185-.489.114-.73.273.06.033.1.074.132.066.206-.027.411-.066.627-.1l.032.158a1.422,1.422,0,0,1-.694.169.228.228,0,0,1-.156-.09,1.719,1.719,0,0,1-.15-.266Z" transform="translate(-2338.352 -306.762)" fill="#fff"/>
        <path id="Path_8951" data-name="Path 8951" d="M2272.4,423.907l.214.12a.366.366,0,0,1,.036.076c.023.157.049.313.067.471.011.122.042.262-.137.306-.188-.228-.071-.517-.171-.829a.739.739,0,0,0-.072.183v.625l-.169.03c-.029-.208-.067-.4-.082-.6C2272.07,424.127,2272.161,424.031,2272.4,423.907Z" transform="translate(-2262.081 -407.86)" fill="#fff"/>
        <path id="Path_8952" data-name="Path 8952" d="M2256.317,239.853c.154-.3-.049-.541.01-.8l.176-.011.128.723-.115.228-.285.024c-.274-.228-.18-.556-.3-.821l.144-.114C2256.249,239.306,2256.18,239.584,2256.317,239.853Z" transform="translate(-2246.969 -234.922)" fill="#fff"/>
        <path id="Path_8953" data-name="Path 8953" d="M2305.5,416.616l-.141.066a1.4,1.4,0,0,1-.284-.813l.26-.228c.073.046.156.07.189.125a2.6,2.6,0,0,1,.332.7l-.158.05c-.19-.165-.145-.475-.417-.619C2305.286,416.181,2305.467,416.376,2305.5,416.616Z" transform="translate(-2292.941 -400.128)" fill="#fff"/>
        <path id="Path_8954" data-name="Path 8954" d="M2209.443,259.793l.087-.08a2.8,2.8,0,0,0-.19-.274c-.076-.088-.159-.174-.253-.274l.113-.142a1.621,1.621,0,0,1,.55.708c-.1.141-.181.308-.442.244l-.479-.554.114-.156Z" transform="translate(-2202.906 -253.618)" fill="#fff"/>
        <path id="Path_8955" data-name="Path 8955" d="M2221.052,412.05l-.133-.153.37-.669c-.094.034-.166.036-.193.073-.113.151-.215.311-.332.485l-.157-.082a1.767,1.767,0,0,1,.5-.72.478.478,0,0,1,.375.29c-.048.1-.094.218-.155.332C2221.258,411.74,2221.166,411.871,2221.052,412.05Z" transform="translate(-2213.929 -395.769)" fill="#fff"/>
        <path id="Path_8956" data-name="Path 8956" d="M2180.639,356.756c-.315-.19-.522.094-.781.026l-.036-.139a1.911,1.911,0,0,1,.67-.2.221.221,0,0,1,.243.161,1.521,1.521,0,0,1,.041.164c-.107.234-.107.234-.8.43l-.1-.086c.035-.073.04-.1.054-.107.139-.051.279-.1.418-.145Z" transform="translate(-2175.775 -344.742)" fill="#fff"/>
        <path id="Path_8957" data-name="Path 8957" d="M2222.36,250.2l.114-.164c.035.018.07.025.084.046.1.161.2.323.3.485a.73.73,0,0,0,.062.074c.057-.157.057-.157-.045-.357l-.167-.341c.108-.1.188-.066.241.029.105.195.2.4.295.582a.544.544,0,0,1-.341.3C2222.61,250.749,2222.6,250.4,2222.36,250.2Z" transform="translate(-2215.57 -245.066)" fill="#fff"/>
        <path id="Path_8958" data-name="Path 8958" d="M2350.583,298.107l.091.182-.646.3v.056c.042.01.09.04.124.029.181-.056.359-.123.546-.189l.114.133a2.291,2.291,0,0,1-.722.315.141.141,0,0,1-.056-.019c-.311-.272-.293-.424.078-.6C2350.275,298.235,2350.423,298.174,2350.583,298.107Z" transform="translate(-2334.805 -290.179)" fill="#fff"/>
        <path id="Path_8959" data-name="Path 8959" d="M2291.068,241.023l.142-.007c.114.266-.133.5-.071.767.228-.029.138-.228.2-.332a1.812,1.812,0,0,0,.115-.357l.176.074a1.833,1.833,0,0,1-.27.8c-.265.031-.265.031-.427-.133a.629.629,0,0,1,.042-.4C2291.011,241.295,2291.034,241.161,2291.068,241.023Z" transform="translate(-2279.696 -236.772)" fill="#fff"/>
        <path id="Path_8960" data-name="Path 8960" d="M2181.369,303.768a2.273,2.273,0,0,1-.9-.15l.113-.169c.24-.021.444.173.725.092a.953.953,0,0,0-.133-.113c-.129-.044-.265-.078-.4-.114s-.133-.05-.113-.252a3.044,3.044,0,0,1,.664.185.275.275,0,0,1,.146.323,1.081,1.081,0,0,1-.1.2Z" transform="translate(-2176.376 -294.815)" fill="#fff"/>
        <path id="Path_8961" data-name="Path 8961" d="M2331.94,396.443c.036-.256.036-.256.278-.41a1.806,1.806,0,0,1,.638.586l-.128.137c-.212-.133-.265-.455-.6-.455.1.256.332.365.464.58l-.114.133C2332.236,396.874,2332.133,396.627,2331.94,396.443Z" transform="translate(-2318.078 -381.785)" fill="#fff"/>
        <path id="Path_8962" data-name="Path 8962" d="M2195.819,388.3l-.613.511-.085-.2.548-.465c-.106,0-.171-.027-.207,0-.151.1-.293.209-.435.314-.133-.1-.146-.153-.066-.216.177-.133.36-.266.535-.389a.359.359,0,0,1,.32.447Z" transform="translate(-2189.892 -374.127)" fill="#fff"/>
        <path id="Path_8963" data-name="Path 8963" d="M2350.747,368.366l-.672-.266c.007.207.164.206.26.266a3.207,3.207,0,0,0,.32.165c-.01.054-.021.1-.035.18a1.765,1.765,0,0,1-.753-.378,1.128,1.128,0,0,1,0-.184.258.258,0,0,1,.349-.228c.2.066.392.155.615.244Z" transform="translate(-2334.843 -355.474)" fill="#fff"/>
        <path id="Path_8964" data-name="Path 8964" d="M2238.209,243.636c.078-.133.078-.133-.138-.767l.153-.033a1.975,1.975,0,0,1,.285.606.258.258,0,0,1-.025.182.282.282,0,0,1-.122.133,1.384,1.384,0,0,1-.254.066,3.884,3.884,0,0,1-.385-.74l.168-.145Z" transform="translate(-2229.939 -238.475)" fill="#fff"/>
        <path id="Path_8965" data-name="Path 8965" d="M2343.051,282.218l.6-.442c.133.114.147.153.061.228-.115.094-.246.169-.364.258a1.18,1.18,0,0,0-.142.177c.309-.034.464-.26.7-.319.085.081.081.157,0,.217-.174.121-.354.236-.519.341C2343.039,282.549,2343.039,282.539,2343.051,282.218Z" transform="translate(-2328.461 -274.902)" fill="#fff"/>
        <path id="Path_8966" data-name="Path 8966" d="M2333.4,267.67c.133.113.142.155.067.228-.114.107-.245.2-.355.319-.032.033-.025.106-.043.2.26-.121.373-.341.587-.477l.121.113c-.011.036-.01.066-.024.075a5.451,5.451,0,0,1-.429.378c-.234.174-.425.083-.455-.208a.677.677,0,0,1,.011-.122Z" transform="translate(-2318.927 -261.707)" fill="#fff"/>
        <path id="Path_8967" data-name="Path 8967" d="M2236.7,419.757l-.177-.126c.133-.244.146-.538.367-.716.209-.044.363-.017.415.217a2.118,2.118,0,0,1-.272.753l-.142-.074c.036-.121.078-.236.106-.354s.133-.228.026-.362c-.132.074-.125.218-.179.325A2.908,2.908,0,0,0,2236.7,419.757Z" transform="translate(-2228.812 -403.173)" fill="#fff"/>
        <path id="Path_8968" data-name="Path 8968" d="M2274.476,239.215a.349.349,0,0,1-.107-.372,1.705,1.705,0,0,0,.019-.383.906.906,0,0,1,.059-.193c.122.019.145.084.144.165,0,.15-.007.3,0,.455a.226.226,0,0,0,.053.137c.115-.218.067-.465.164-.682a.166.166,0,0,1,.056-.022.873.873,0,0,1,.122.024c-.025.228-.039.465-.078.689a.236.236,0,0,1-.227.195,1.864,1.864,0,0,1-.2-.013Z" transform="translate(-2264.199 -234.199)" fill="#fff"/>
        <path id="Path_8969" data-name="Path 8969" d="M2177.982,339.138a.572.572,0,0,0-.133-.033c-.15,0-.3,0-.455.007a.149.149,0,0,1-.17-.133c.208-.156.483,0,.689-.145.145.1.293.187.262.382-.035.22-.238.228-.394.266a2.631,2.631,0,0,1-.455.038l-.078-.191.715-.113Z" transform="translate(-2173.352 -328.271)" fill="#fff"/>
        <path id="Path_8970" data-name="Path 8970" d="M2206.78,401.563a1.714,1.714,0,0,1,.473-.592c.181-.066.29.021.383.165.056.362-.288.512-.434.8l-.149-.1c.043-.266.335-.365.377-.617,0-.015-.021-.033-.041-.062-.228.1-.273.378-.511.495Z" transform="translate(-2200.996 -386.381)" fill="#fff"/>
        <path id="Path_8971" data-name="Path 8971" d="M2177.76,322.392l.062-.208h.657c0-.145-.127-.137-.2-.153a1.557,1.557,0,0,0-.319-.013.168.168,0,0,1-.178-.145.99.99,0,0,1,.877.086.456.456,0,0,1-.057.432Z" transform="translate(-2173.844 -312.352)" fill="#fff"/>
        <path id="Path_8972" data-name="Path 8972" d="M2356.059,335.584c-.206-.323-.206-.341.033-.569h.711c.007.054.012.1.022.182l-.716.032c.044.212.194.157.309.164s.254,0,.393,0v.189Z" transform="translate(-2340.497 -324.708)" fill="#fff"/>
        <path id="Path_8973" data-name="Path 8973" d="M2201.83,396.178l.65-.646.089.114c-.053.156-.18.228-.271.332s-.187.208-.29.322Z" transform="translate(-2196.356 -381.321)" fill="#fff"/>
        <path id="Path_8974" data-name="Path 8974" d="M2231.19,416.8c.091-.252.17-.469.247-.69.042-.121.108-.179.237-.113a3.04,3.04,0,0,1-.349.886Z" transform="translate(-2223.831 -400.434)" fill="#fff"/>
        <path id="Path_8975" data-name="Path 8975" d="M2249.1,420.1l.185.153c-.113.276-.042.588-.208.846-.011.017-.055.013-.1.022a2.777,2.777,0,0,1,.129-1.024Z" transform="translate(-2240.447 -404.303)" fill="#fff"/>
        <path id="Path_8976" data-name="Path 8976" d="M2267.014,423.821v.954l-.165.035c-.054-.319-.007-.627-.031-.946Z" transform="translate(-2257.155 -407.779)" fill="#fff"/>
        <path id="Path_8977" data-name="Path 8977" d="M2232.689,247.49l-.147.1-.418-.839.143-.113a3.69,3.69,0,0,1,.423.855Z" transform="translate(-2224.701 -242.035)" fill="#fff"/>
        <path id="Path_8978" data-name="Path 8978" d="M2356.643,328.088l.018.161c-.273.145-.581.084-.872.181-.02-.074-.031-.122-.051-.2.155-.03.3-.06.438-.083S2356.459,328.11,2356.643,328.088Z" transform="translate(-2340.331 -318.225)" fill="#fff"/>
        <path id="Path_8979" data-name="Path 8979" d="M2298.45,419.852l.185-.045.307.811-.145.137A7.035,7.035,0,0,1,2298.45,419.852Z" transform="translate(-2286.74 -404.025)" fill="#fff"/>
        <path id="Path_8980" data-name="Path 8980" d="M2300.567,244.152h.153c.039.324-.19.576-.19.887h-.228Z" transform="translate(-2288.478 -239.707)" fill="#fff"/>
        <path id="Path_8981" data-name="Path 8981" d="M2179.888,316.1l-.053.1c-.021.015-.033.027-.04.025a6,6,0,0,1-.885-.177c.038-.054.052-.092.077-.1a.334.334,0,0,1,.152-.026c.219.025.437.054.654.091C2179.833,316.012,2179.854,316.062,2179.888,316.1Z" transform="translate(-2174.926 -306.839)" fill="#fff"/>
        <path id="Path_8982" data-name="Path 8982" d="M2191.46,381.715l.137.153-.779.513-.1-.163Z" transform="translate(-2185.962 -368.391)" fill="#fff"/>
        <path id="Path_8983" data-name="Path 8983" d="M2353.758,309.865l.123.164-.883.3c-.084-.114-.048-.2.057-.241C2353.28,310,2353.507,309.939,2353.758,309.865Z" transform="translate(-2337.725 -301.179)" fill="#fff"/>
        <path id="Path_8984" data-name="Path 8984" d="M2178.952,351.223a1.84,1.84,0,0,0-.01-.185,3.042,3.042,0,0,1,.879-.165c.012.061.021.114.033.175Z" transform="translate(-2174.954 -339.538)" fill="#fff"/>
        <path id="Path_8985" data-name="Path 8985" d="M2204.43,267.079l-.25-.3.122-.114.664.569-.048.167a.427.427,0,0,1-.1-.033c-.086-.057-.133-.172-.261-.165v.006l-.072-.072.007.007-.071-.072Z" transform="translate(-2198.562 -260.768)" fill="#fff"/>
        <path id="Path_8986" data-name="Path 8986" d="M2338.542,391.646l-.129.133-.712-.569.1-.148a3.969,3.969,0,0,1,.744.585Z" transform="translate(-2323.458 -377.137)" fill="#fff"/>
        <path id="Path_8987" data-name="Path 8987" d="M2328.469,262.609l.123.1a.171.171,0,0,1-.012.062c-.141.185-.281.372-.427.554-.075.094-.081.09-.252.037a.665.665,0,0,1,.066-.139C2328.128,263.023,2328.287,262.826,2328.469,262.609Z" transform="translate(-2314.291 -256.972)" fill="#fff"/>
        <path id="Path_8988" data-name="Path 8988" d="M2249.861,241.029h.182l.228.863-.173.049a3.818,3.818,0,0,1-.236-.91Z" transform="translate(-2241.291 -236.785)" fill="#fff"/>
        <path id="Path_8989" data-name="Path 8989" d="M2326.906,402.491l.587.71-.108.114c-.265-.161-.378-.447-.609-.645Z" transform="translate(-2313.239 -387.825)" fill="#fff"/>
        <path id="Path_8990" data-name="Path 8990" d="M2184.52,297.943c.066-.031.1-.066.132-.06a3.5,3.5,0,0,1,.813.287l-.066.133c-.027.015-.038.026-.045.024-.239-.085-.478-.169-.714-.26a1.384,1.384,0,0,1-.121-.123Z" transform="translate(-2180.172 -289.967)" fill="#fff"/>
        <path id="Path_8991" data-name="Path 8991" d="M2183.429,366.577l.122.177-.828.3-.114-.133a5.122,5.122,0,0,1,.821-.341Z" transform="translate(-2178.377 -354.229)" fill="#fff"/>
        <path id="Path_8992" data-name="Path 8992" d="M2215.8,407.747l-.133-.113.455-.735.172.057a3.51,3.51,0,0,1-.5.8Z" transform="translate(-2209.304 -391.945)" fill="#fff"/>
        <path id="Path_8993" data-name="Path 8993" d="M2347.878,292.554l.051.169-.768.436-.085-.172a4.194,4.194,0,0,1,.8-.432Z" transform="translate(-2332.238 -284.984)" fill="#fff"/>
        <path id="Path_8994" data-name="Path 8994" d="M2285.215,241.085l-.2-.033c.047-.3.092-.586.138-.878h.192Z" transform="translate(-2274.172 -235.985)" fill="#fff"/>
        <path id="Path_8995" data-name="Path 8995" d="M2357.1,346.132l-.91-.09v-.161a2.545,2.545,0,0,1,.867.051Z" transform="translate(-2340.759 -334.849)" fill="#fff"/>
        <path id="Path_8996" data-name="Path 8996" d="M2193.56,280.838l.133-.156.747.455-.113.167Z" transform="translate(-2188.624 -273.878)" fill="#fff"/>
        <path id="Path_8997" data-name="Path 8997" d="M2354.047,362.3c-.067.021-.133.066-.19.056-.235-.057-.465-.133-.7-.2v-.187a2,2,0,0,1,.885.332Z" transform="translate(-2337.92 -349.913)" fill="#fff"/>
        <path id="Path_8998" data-name="Path 8998" d="M2282.73,424.011h.2c.053.289.1.576.16.882l-.191.024Z" transform="translate(-2272.037 -407.957)" fill="#fff"/>
        <path id="Path_8999" data-name="Path 8999" d="M2315.106,252.489l-.186-.025a9.047,9.047,0,0,1,.44-.848l.162.114Z" transform="translate(-2302.15 -246.688)" fill="#fff"/>
        <path id="Path_9000" data-name="Path 9000" d="M2347.563,377.415l-.022.164a5.076,5.076,0,0,1-.841-.41l.1-.176Z" transform="translate(-2331.882 -363.973)" fill="#fff"/>
        <path id="Path_9001" data-name="Path 9001" d="M2178.175,334.122c-.038.035-.066.088-.1.089a4.149,4.149,0,0,1-.848-.005c-.025-.113.031-.171.113-.173.246-.008.491,0,.736,0C2178.107,334.035,2178.13,334.087,2178.175,334.122Z" transform="translate(-2173.339 -323.781)" fill="#fff"/>
        <path id="Path_9002" data-name="Path 9002" d="M2313.65,412.693l.167-.075c.114.228.228.447.342.664.032.062.028.062-.009.2C2313.98,413.393,2313.866,413.215,2313.65,412.693Z" transform="translate(-2300.963 -397.298)" fill="#fff"/>
        <path id="Path_9003" data-name="Path 9003" d="M2269.2,238.924l.145-.013a.962.962,0,0,1,.037.439c.01.147,0,.295,0,.465l-.185.008Z" transform="translate(-2259.388 -234.804)" fill="#fff"/>
        <path id="Path_9004" data-name="Path 9004" d="M2339.1,276.6l.125.137-.7.6-.122-.114a3.727,3.727,0,0,1,.7-.633Z" transform="translate(-2324.127 -270.064)" fill="#fff"/>
        <path id="Path_9005" data-name="Path 9005" d="M2218.26,256.775a4.485,4.485,0,0,1-.578-.708l.107-.133a5,5,0,0,1,.569.708Z" transform="translate(-2211.185 -250.731)" fill="#fff"/>
        <path id="Path_9006" data-name="Path 9006" d="M2281.44,356c-.138,0-.189-.107-.246-.206a.362.362,0,0,1,.245.207Z" transform="translate(-2270.608 -344.146)"/>
        <path id="Path_9007" data-name="Path 9007" d="M2271.962,357.365l.089-.184.114.1-.213.082Z" transform="translate(-2261.96 -345.44)"/>
        <path id="Path_9008" data-name="Path 9008" d="M2277.355,362.363l-.113.042c.035-.1.035-.1.113-.037Z" transform="translate(-2266.899 -350.25)"/>
        <path id="Path_9009" data-name="Path 9009" d="M2278.96,362.965l.066.066.007-.006-.066-.066Z" transform="translate(-2268.516 -350.847)"/>
        <path id="Path_9010" data-name="Path 9010" d="M2264.961,348.377l.029-.046.029.046v-.007h-.07Z" transform="translate(-2255.414 -337.163)"/>
        <path id="Path_9011" data-name="Path 9011" d="M2271.587,359.949l-.025.046.031-.04Z" transform="translate(-2261.596 -348.03)"/>
        <path id="Path_9012" data-name="Path 9012" d="M2265.95,348.956l.049.024-.044-.031Z" transform="translate(-2256.342 -337.74)"/>
        <path id="Path_9013" data-name="Path 9013" d="M2284.992,358.989l.066.066h0Z" transform="translate(-2274.154 -347.13)"/>
        <path id="Path_9014" data-name="Path 9014" d="M2270.95,354.956l.049.022-.043-.029Z" transform="translate(-2261.015 -343.352)"/>
        <path id="Path_9015" data-name="Path 9015" d="M2324.356,366.553l-.048-.027.042.034Z" transform="translate(-2310.938 -354.182)"/>
        <path id="Path_9016" data-name="Path 9016" d="M2323.31,364.336l.02-.009v.024Z" transform="translate(-2310.005 -352.125)"/>
        <path id="Path_9017" data-name="Path 9017" d="M2326.96,351.961l.07.07Z" transform="translate(-2313.417 -340.557)"/>
        <path id="Path_9018" data-name="Path 9018" d="M2310.969,385.974l.071.066Z" transform="translate(-2298.46 -372.375)"/>
        <path id="Path_9019" data-name="Path 9019" d="M2327.95,338.947l.072.072Z" transform="translate(-2314.338 -328.382)"/>
        <path id="Path_9020" data-name="Path 9020" d="M2326.95,326.955l.133.066Z" transform="translate(-2313.407 -317.165)"/>
        <path id="Path_9021" data-name="Path 9021" d="M2208.94,273.945l.072.072Z" transform="translate(-2203.017 -267.576)"/>
        <path id="Path_9022" data-name="Path 9022" d="M2207.94,272.943l.072.072Z" transform="translate(-2202.082 -266.639)"/>
      </g>
      <path id="Path_9025" data-name="Path 9025" d="M1.77-9.073V-17.9H4.436l1.6,6.028L7.621-17.9h2.667v8.821H8.636v-6.938L6.885-9.073H5.169L3.424-16.017v6.938Zm17.96,0H17.8l-.774-2H13.5l-.728,2h-1.89l3.436-8.83H16.2Zm-3.278-3.491-1.216-3.272-1.2,3.273ZM20.41-9.073V-17.9h1.733l3.61,5.89V-17.9h1.654v8.821H25.62l-3.557-5.751v5.756Zm16.552,0H35.029l-.774-2H30.729l-.73,2H28.11l3.436-8.83h1.883Zm-3.279-3.491-1.216-3.273-1.2,3.273Zm3.945,3.491V-17.9h2.855a10.364,10.364,0,0,1,2.118.133,2.313,2.313,0,0,1,1.269.863,2.739,2.739,0,0,1,.512,1.718,2.877,2.877,0,0,1-.295,1.365,2.419,2.419,0,0,1-.75.869,2.582,2.582,0,0,1-.918.418,10.166,10.166,0,0,1-1.847.126H39.4v3.327ZM39.41-16.4v2.5h.975a4.6,4.6,0,0,0,1.408-.139,1.169,1.169,0,0,0,.556-.434,1.186,1.186,0,0,0,.2-.682,1.137,1.137,0,0,0-.283-.8,1.231,1.231,0,0,0-.716-.391,8.56,8.56,0,0,0-1.282-.06Zm6.155,7.329V-17.9H48.42a10.364,10.364,0,0,1,2.118.133,2.313,2.313,0,0,1,1.269.863,2.739,2.739,0,0,1,.512,1.718,2.877,2.877,0,0,1-.295,1.365,2.419,2.419,0,0,1-.75.869,2.582,2.582,0,0,1-.923.418,10.166,10.166,0,0,1-1.847.126H47.339V-9.08ZM47.345-16.4v2.5h.978a4.6,4.6,0,0,0,1.408-.139,1.169,1.169,0,0,0,.556-.434,1.186,1.186,0,0,0,.2-.682,1.137,1.137,0,0,0-.284-.8,1.231,1.231,0,0,0-.716-.391,8.56,8.56,0,0,0-1.282-.06Zm6.141-1.492h1.781v4.777a9.911,9.911,0,0,0,.066,1.479,1.429,1.429,0,0,0,.545.869,1.9,1.9,0,0,0,1.176.327,1.792,1.792,0,0,0,1.143-.309,1.224,1.224,0,0,0,.465-.761,9.922,9.922,0,0,0,.078-1.5V-17.9h1.781v4.633a11.9,11.9,0,0,1-.145,2.244,2.484,2.484,0,0,1-.531,1.107A2.691,2.691,0,0,1,58.8-9.2a4.515,4.515,0,0,1-1.7.266,4.89,4.89,0,0,1-1.916-.292,2.741,2.741,0,0,1-1.032-.757,2.431,2.431,0,0,1-.5-.978,10.712,10.712,0,0,1-.174-2.238Zm8.631,8.821V-17.9H65.87a6.417,6.417,0,0,1,2.058.238,2.027,2.027,0,0,1,1.024.845,2.541,2.541,0,0,1,.386,1.39,2.354,2.354,0,0,1-.584,1.64,2.8,2.8,0,0,1-1.745.815,4.155,4.155,0,0,1,.954.74A10.053,10.053,0,0,1,68.977-10.8l1.062,1.726H67.914l-1.286-1.919a12.453,12.453,0,0,0-.938-1.3,1.365,1.365,0,0,0-.535-.37,2.935,2.935,0,0,0-.9-.1H63.9v3.684ZM63.9-14.163H65.22a6.8,6.8,0,0,0,1.6-.114.959.959,0,0,0,.5-.373,1.148,1.148,0,0,0,.181-.664,1.058,1.058,0,0,0-.238-.719,1.091,1.091,0,0,0-.671-.341q-.216-.03-1.3-.03H63.9ZM78.689-9.073H76.751l-.78-2H72.446l-.73,2h-1.89l3.436-8.83h1.883Zm-3.279-3.49-1.216-3.273L73-12.563Zm3.917,3.49V-17.9h2.656l1.6,6.028L85.168-17.9h2.672v8.821h-1.66v-6.938L84.428-9.078H82.713l-1.745-6.938v6.938Z" transform="translate(2882.898 -1003.01)" fill="#ff000c"/>
      <path id="Path_9024" data-name="Path 9024" d="M1.475-7.383v-7.051H6.312v1.2H2.9v1.67H5.845v1.2H2.9v2.992Zm6.087,0v-7.051H8.987v7.051Zm2.915,0v-7.051h1.386L14.75-9.721v-4.714h1.324v7.051H14.645l-2.843-4.6v4.6Zm13.586,0h-1.55l-.616-1.6H19.076l-.582,1.6H16.982l2.749-7.051h1.507ZM21.44-10.172l-.973-2.616-.953,2.616Zm3.512,2.788v-7.051h1.386l2.887,4.714v-4.714H30.55v7.051H29.12l-2.843-4.6v4.6ZM36.69-9.977l1.382.436a3.1,3.1,0,0,1-1.056,1.716,3.014,3.014,0,0,1-1.876.561,3.035,3.035,0,0,1-2.313-.958,3.675,3.675,0,0,1-.91-2.626,3.858,3.858,0,0,1,.91-2.737,3.12,3.12,0,0,1,2.39-.975,2.935,2.935,0,0,1,2.1.765,2.783,2.783,0,0,1,.722,1.3l-1.41.341a1.5,1.5,0,0,0-.522-.866,1.5,1.5,0,0,0-.965-.317,1.606,1.606,0,0,0-1.273.569,2.76,2.76,0,0,0-.489,1.82,2.957,2.957,0,0,0,.481,1.906,1.563,1.563,0,0,0,1.251.569,1.427,1.427,0,0,0,.977-.36,2.1,2.1,0,0,0,.6-1.145Zm2.722,2.594v-7.051h5.233v1.2H40.836v1.565h3.543v1.188H40.836v1.909h3.942v1.2Zm9.589,0v-6.994h1.425v5.8h3.543v1.2Zm6.058,0v-7.051h1.425v7.051Zm2.881,0v-7.051h2.134l1.281,4.813,1.266-4.813h2.137v7.051H63.433v-5.554l-1.4,5.554H60.66l-1.394-5.554v5.554Zm8.3,0v-7.051h1.425v7.051Zm4.489,0v-5.863H68.642v-1.2H74.25v1.2H72.16v5.863Zm4.549,0v-7.051h5.232v1.2h-3.8v1.565h3.543v1.188H76.711v1.909h3.946v1.2Zm6.689-7.051h2.6a5.085,5.085,0,0,1,1.343.133,2.36,2.36,0,0,1,1.062.649,3.083,3.083,0,0,1,.675,1.143,5.208,5.208,0,0,1,.228,1.668,4.638,4.638,0,0,1-.215,1.505,3.112,3.112,0,0,1-.755,1.251,2.5,2.5,0,0,1-1,.569,4.311,4.311,0,0,1-1.261.149H81.976Zm1.419,1.2v4.663H84.45a3.882,3.882,0,0,0,.863-.066,1.315,1.315,0,0,0,.576-.293,1.5,1.5,0,0,0,.373-.682,4.6,4.6,0,0,0,.145-1.292,4.216,4.216,0,0,0-.145-1.251,1.615,1.615,0,0,0-.4-.682,1.356,1.356,0,0,0-.66-.332,6.46,6.46,0,0,0-1.169-.066Z" transform="translate(2883.048 -990.596)" fill="#fff"/>
    </g>
  </g>
</svg>
